<svg width="324" height="237" viewBox="0 0 324 237" fill="none" xmlns="http://www.w3.org/2000/svg">
<mask id="path-1-outside-1_2303_7226" maskUnits="userSpaceOnUse" x="0" y="0" width="324" height="237" fill="black">
<rect fill="white" width="324" height="237"/>
<path fill-rule="evenodd" clip-rule="evenodd" d="M95.9378 5.49996C98.6321 0.833295 105.368 0.833302 108.062 5.49997L125.383 35.5C125.665 35.9898 125.882 36.4925 126.035 37H198.965C199.118 36.4925 199.335 35.9898 199.617 35.5L216.938 5.49996C219.632 0.833295 226.368 0.833302 229.062 5.49997L246.383 35.5C246.665 35.9898 246.882 36.4925 247.035 37H314C318.418 37 322 40.5817 322 45V227C322 231.418 318.418 235 314 235H9.99999C5.58171 235 2 231.418 2 227V45C2 40.5817 5.58172 37 10 37H77.9646C78.1185 36.4925 78.3345 35.9898 78.6173 35.5L95.9378 5.49996Z"/>
</mask>
<path fill-rule="evenodd" clip-rule="evenodd" d="M95.9378 5.49996C98.6321 0.833295 105.368 0.833302 108.062 5.49997L125.383 35.5C125.665 35.9898 125.882 36.4925 126.035 37H198.965C199.118 36.4925 199.335 35.9898 199.617 35.5L216.938 5.49996C219.632 0.833295 226.368 0.833302 229.062 5.49997L246.383 35.5C246.665 35.9898 246.882 36.4925 247.035 37H314C318.418 37 322 40.5817 322 45V227C322 231.418 318.418 235 314 235H9.99999C5.58171 235 2 231.418 2 227V45C2 40.5817 5.58172 37 10 37H77.9646C78.1185 36.4925 78.3345 35.9898 78.6173 35.5L95.9378 5.49996Z" fill="#FFF9E6"/>
<path d="M108.062 5.49997L109.794 4.49997L109.794 4.49997L108.062 5.49997ZM95.9378 5.49996L97.6699 6.49996L97.6699 6.49996L95.9378 5.49996ZM125.383 35.5L127.115 34.5L127.115 34.5L125.383 35.5ZM126.035 37L124.121 37.5804L124.552 39H126.035V37ZM198.965 37V39H200.448L200.879 37.5804L198.965 37ZM199.617 35.5L197.885 34.5L197.885 34.5L199.617 35.5ZM216.938 5.49996L215.206 4.49996L215.206 4.49996L216.938 5.49996ZM229.062 5.49997L230.794 4.49997L230.794 4.49997L229.062 5.49997ZM246.383 35.5L248.115 34.5L248.115 34.5L246.383 35.5ZM247.035 37L245.121 37.5804L245.552 39H247.035V37ZM77.9646 37V39H79.448L79.8785 37.5804L77.9646 37ZM78.6173 35.5L80.3494 36.5L80.3494 36.5L78.6173 35.5ZM109.794 4.49997C106.33 -1.50003 97.6699 -1.50004 94.2058 4.49996L97.6699 6.49996C99.5944 3.16663 104.406 3.16663 106.33 6.49997L109.794 4.49997ZM127.115 34.5L109.794 4.49997L106.33 6.49997L123.651 36.5L127.115 34.5ZM127.949 36.4195C127.751 35.765 127.474 35.1216 127.115 34.5L123.651 36.5C123.857 36.858 124.012 37.22 124.121 37.5804L127.949 36.4195ZM126.035 39H198.965V35H126.035V39ZM197.885 34.5C197.526 35.1216 197.249 35.765 197.051 36.4195L200.879 37.5804C200.988 37.22 201.143 36.858 201.349 36.5L197.885 34.5ZM215.206 4.49996L197.885 34.5L201.349 36.5L218.67 6.49996L215.206 4.49996ZM230.794 4.49997C227.33 -1.50003 218.67 -1.50004 215.206 4.49996L218.67 6.49996C220.594 3.16663 225.406 3.16663 227.33 6.49997L230.794 4.49997ZM248.115 34.5L230.794 4.49997L227.33 6.49997L244.651 36.5L248.115 34.5ZM248.949 36.4195C248.751 35.765 248.474 35.1216 248.115 34.5L244.651 36.5C244.857 36.858 245.012 37.22 245.121 37.5804L248.949 36.4195ZM247.035 39H314V35H247.035V39ZM314 39C317.314 39 320 41.6863 320 45H324C324 39.4771 319.523 35 314 35V39ZM320 45V227H324V45H320ZM320 227C320 230.314 317.314 233 314 233V237C319.523 237 324 232.523 324 227H320ZM314 233H9.99999V237H314V233ZM9.99999 233C6.68629 233 4 230.314 4 227H0C0 232.523 4.47714 237 9.99999 237V233ZM4 227V45H0V227H4ZM4 45C4 41.6863 6.68629 39 10 39V35C4.47715 35 0 39.4771 0 45H4ZM10 39H77.9646V35H10V39ZM76.8853 34.5C76.5263 35.1216 76.2491 35.765 76.0507 36.4195L79.8785 37.5804C79.9878 37.22 80.1427 36.858 80.3494 36.5L76.8853 34.5ZM94.2058 4.49996L76.8853 34.5L80.3494 36.5L97.6699 6.49996L94.2058 4.49996Z" fill="#B2A990" mask="url(#path-1-outside-1_2303_7226)"/>
<path d="M97.6699 16.5C99.5944 13.1667 104.406 13.1667 106.33 16.5L114.99 31.5C116.915 34.8333 114.509 39 110.66 39H93.3398C89.4908 39 87.0851 34.8333 89.0096 31.5L97.6699 16.5Z" fill="#B2A990" fill-opacity="0.75"/>
<path d="M218.67 16.5C220.594 13.1667 225.406 13.1667 227.33 16.5L235.99 31.5C237.915 34.8333 235.509 39 231.66 39H214.34C210.491 39 208.085 34.8333 210.01 31.5L218.67 16.5Z" fill="#B2A990" fill-opacity="0.75"/>
</svg>
