<svg width="36" height="36" viewBox="0 0 36 36" fill="none" xmlns="http://www.w3.org/2000/svg">
<path d="M25.05 22.9125L29.025 18.9C29.825 18.1 30.4375 17.1875 30.8625 16.1625C31.2875 15.1375 31.5 14.0625 31.5 12.9375C31.5 10.5875 30.6815 8.5935 29.0445 6.9555C27.4075 5.3175 25.4135 4.499 23.0625 4.5C21.9375 4.5 20.8625 4.7125 19.8375 5.1375C18.8125 5.5625 17.9 6.175 17.1 6.975L13.0875 10.95L25.05 22.9125ZM12.9375 31.5C14.0625 31.5 15.1375 31.2875 16.1625 30.8625C17.1875 30.4375 18.1 29.825 18.9 29.025L22.9125 25.05L10.95 13.0875L6.975 17.1C6.175 17.9 5.5625 18.8125 5.1375 19.8375C4.7125 20.8625 4.5 21.9375 4.5 23.0625C4.5 25.4125 5.319 27.406 6.957 29.043C8.595 30.68 10.5885 31.499 12.9375 31.5Z" fill="#837266"/>
</svg>
