<svg width="36" height="36" viewBox="0 0 36 36" fill="none" xmlns="http://www.w3.org/2000/svg">
<g clip-path="url(#clip0_2711_13786)">
<path d="M17.9125 4.36099C18.1039 4.12584 18.4047 4.00553 18.7055 4.04928C21.2703 4.39381 23.25 6.59224 23.25 9.25006C23.25 9.86256 23.1461 10.4532 22.9492 11.0001H23.25C25.1805 11.0001 26.75 12.5696 26.75 14.5001C26.75 15.5446 26.2906 16.4852 25.5633 17.1251H26.3125C28.4891 17.1251 30.25 18.886 30.25 21.0626C30.25 22.3313 29.6484 23.4579 28.7188 24.1797C30.5836 24.4915 32 26.1102 32 28.0626C32 30.2391 30.2391 32.0001 28.0625 32.0001H7.9375C5.76094 32.0001 4 30.2391 4 28.0626C4 26.1102 5.41641 24.4915 7.28125 24.1797C6.35156 23.4579 5.75 22.3313 5.75 21.0626C5.75 18.886 7.51094 17.1251 9.6875 17.1251H10.4367C9.70937 16.4852 9.25 15.5446 9.25 14.5001C9.25 12.5696 10.8195 11.0001 12.75 11.0001H13.6359C16.0477 10.9946 18 9.03678 18 6.62506C18 6.12193 17.918 5.64615 17.7648 5.19771C17.6664 4.91334 17.7211 4.59068 17.918 4.35553L17.9125 4.36099Z" fill="#837266"/>
</g>
<defs>
<clipPath id="clip0_2711_13786">
<rect width="28" height="28" fill="white" transform="translate(4 4)"/>
</clipPath>
</defs>
</svg>
