<svg width="30" height="30" viewBox="0 0 30 30" fill="none" xmlns="http://www.w3.org/2000/svg">
<g clip-path="url(#clip0_3789_10992)">
<path d="M7.89349 12.9965C7.61821 12.5705 7.33636 12.1313 6.94309 11.8102C6.67436 11.5939 6.35974 11.4366 6.03202 11.3514C5.43556 11.2006 4.76044 11.312 4.30818 11.7184C4.09844 11.9085 3.94769 12.151 3.82315 12.4066C3.28568 13.534 3.37744 14.9301 4.05911 15.9788C4.17709 16.1624 4.31474 16.3328 4.48515 16.4573C4.77355 16.6736 5.13405 16.7457 5.48144 16.8178C5.7174 16.8637 5.96647 16.9096 6.18277 16.8178C6.39907 16.7261 6.54982 16.5163 6.76612 16.4245C6.91687 16.359 7.08729 16.359 7.23149 16.2935C7.34947 16.241 7.44123 16.1493 7.51989 16.0509C7.85417 15.638 7.99837 15.094 8.01803 14.5631C8.0377 14.0322 7.93938 13.5012 7.84761 12.9769" fill="#8A7D73"/>
<path d="M8.13595 12.8588C7.82133 12.3672 7.49361 11.869 7.00857 11.5151C6.52354 11.1612 5.94674 10.9776 5.36339 11.017C4.13115 11.1022 3.44948 12.1509 3.2594 13.2848C3.06932 14.4187 3.32494 15.6838 4.11804 16.5031C4.52442 16.9291 5.1471 17.0733 5.71734 17.1389C5.98607 17.1716 6.2417 17.1389 6.46455 16.9881C6.57598 16.916 6.66774 16.8177 6.77261 16.7456C6.91681 16.6538 7.07412 16.6473 7.23143 16.5948C7.80167 16.4048 8.10973 15.71 8.22116 15.166C8.37846 14.4122 8.24738 13.6453 8.10973 12.8981C8.04419 12.5442 7.50672 12.6949 7.57226 13.0489C7.67058 13.5929 7.7689 14.1369 7.72957 14.694C7.6968 15.1266 7.55915 15.6641 7.21832 15.9656C7.05446 16.1098 6.81849 16.0967 6.62841 16.1885C6.43833 16.2802 6.30069 16.4572 6.11716 16.549C5.92053 16.6473 5.67801 16.5817 5.47482 16.5358C5.22575 16.4834 4.96357 16.431 4.74072 16.2933C4.34745 16.0508 4.09838 15.5461 3.95418 15.1266C3.80998 14.7071 3.74443 14.2418 3.7641 13.7895C3.80342 12.944 4.16392 11.869 5.06844 11.62C5.57969 11.4823 6.13027 11.6003 6.57598 11.8822C7.05446 12.1837 7.35596 12.6687 7.65747 13.1341C7.84755 13.4356 8.33258 13.1537 8.13595 12.8522V12.8588Z" fill="#8A7D73"/>
<path d="M13.1502 7.20911C12.9142 6.80273 12.6193 6.43568 12.285 6.1014C12.1277 5.95065 11.9573 5.79989 11.7541 5.72779C11.4919 5.63603 11.21 5.66225 10.9348 5.70158C10.6136 5.7409 10.2924 5.78023 9.99091 5.89166C9.2568 6.16039 8.69967 6.8945 8.69312 7.67448C8.69312 7.90389 8.73244 8.12674 8.75866 8.35615C8.80454 8.74942 8.80454 9.14924 8.85042 9.54907C8.8963 9.94889 9.00773 10.3422 9.24369 10.6633C9.36167 10.8206 9.50587 10.9583 9.66318 11.0763C10.0958 11.404 10.6332 11.6137 11.1773 11.6203C11.931 11.6203 12.6717 11.2205 13.065 10.5781C13.1633 10.4143 13.2419 10.2373 13.314 10.0603C13.5172 9.55562 13.6745 9.0116 13.6549 8.46758C13.6352 7.92355 13.4386 7.35987 13.0256 6.99937" fill="#8A7D73"/>
<path d="M13.3927 7.06483C13.0649 6.52736 12.6454 5.9309 12.1014 5.59007C11.5574 5.24923 10.7184 5.38688 10.122 5.55074C9.57138 5.70149 9.09945 6.03577 8.77828 6.5077C8.41779 7.04516 8.39157 7.60885 8.46367 8.23153C8.54887 8.93286 8.49644 9.66697 8.75862 10.3355C9.00113 10.9451 9.51239 11.3842 10.1023 11.6464C11.1969 12.1315 12.4947 11.83 13.2091 10.8533C13.6417 10.2569 13.8973 9.40478 13.9367 8.67723C13.976 7.94969 13.7466 7.27457 13.2288 6.79609C12.9666 6.55358 12.5733 6.94685 12.8355 7.18936C13.6745 7.96935 13.3992 9.25403 12.9601 10.1717C12.5209 11.0893 11.5771 11.5153 10.6332 11.2466C10.1416 11.109 9.63037 10.7943 9.37474 10.3421C9.09945 9.85704 9.10601 9.26714 9.06668 8.72312C9.02735 8.17909 8.8766 7.6744 9.06012 7.1697C9.20432 6.76332 9.51894 6.42249 9.8991 6.22585C10.1613 6.08821 10.4628 6.03577 10.7577 5.99644C11.0527 5.95712 11.4001 5.88502 11.6819 5.99644C11.9638 6.10787 12.1801 6.37661 12.3636 6.5929C12.5668 6.82887 12.7438 7.08449 12.9076 7.34667C13.0911 7.65473 13.5762 7.37289 13.3861 7.06483H13.3927Z" fill="#8A7D73"/>
<path d="M21.6186 12.9965C21.8939 12.5705 22.1757 12.1313 22.569 11.8102C22.8377 11.5939 23.1523 11.4366 23.4801 11.3514C24.0765 11.2006 24.7516 11.312 25.2039 11.7184C25.4136 11.9085 25.5644 12.151 25.6889 12.4066C26.2264 13.534 26.1346 14.9301 25.453 15.9788C25.335 16.1624 25.1973 16.3328 25.0269 16.4573C24.7385 16.6736 24.378 16.7457 24.0306 16.8178C23.7947 16.8637 23.5456 16.9096 23.3293 16.8178C23.113 16.7261 22.9623 16.5163 22.746 16.4245C22.5952 16.359 22.4248 16.359 22.2806 16.2935C22.1626 16.241 22.0708 16.1493 21.9922 16.0509C21.6579 15.638 21.5137 15.094 21.4941 14.5631C21.4744 14.0322 21.5727 13.5012 21.6645 12.9769" fill="#8A7D73"/>
<path d="M21.8545 13.1406C22.3723 12.3344 23.0016 11.5413 24.0634 11.5741C25.1252 11.6068 25.5709 12.5376 25.7151 13.4421C25.8593 14.3466 25.6496 15.3626 25.0662 16.0508C24.7582 16.4178 24.2404 16.5358 23.7815 16.5948C23.3227 16.6538 23.0605 16.2147 22.628 16.1098C22.1036 15.9853 21.8938 15.4281 21.8152 14.9365C21.7103 14.3139 21.8283 13.6715 21.9397 13.0554C22.0053 12.7014 21.4678 12.5572 21.4023 12.9046C21.1991 14.0189 20.9631 15.5723 21.9594 16.4178C22.1757 16.6014 22.4379 16.5883 22.6804 16.7128C22.936 16.8439 23.0868 17.0733 23.3883 17.1388C23.657 17.1978 23.9323 17.1388 24.201 17.0864C24.5025 17.0209 24.804 16.9488 25.0662 16.7915C26.0297 16.2147 26.3837 14.7596 26.3116 13.7174C26.2395 12.6752 25.7217 11.3709 24.5615 11.089C23.9454 10.9383 23.29 11.0563 22.7459 11.3709C22.1429 11.7183 21.7496 12.2951 21.3892 12.8653C21.1925 13.1668 21.6775 13.4487 21.8676 13.1472L21.8545 13.1406Z" fill="#8A7D73"/>
<path d="M16.3619 7.20911C16.5979 6.80273 16.8928 6.43568 17.2271 6.1014C17.3844 5.95065 17.5548 5.79989 17.758 5.72779C18.0202 5.63603 18.302 5.66225 18.5773 5.70158C18.8985 5.7409 19.2197 5.78023 19.5212 5.89166C20.2553 6.16039 20.8124 6.8945 20.8189 7.67448C20.8189 7.90389 20.7796 8.12674 20.7534 8.35615C20.7075 8.74942 20.7075 9.14924 20.6616 9.54907C20.6158 9.94889 20.5043 10.3422 20.2684 10.6633C20.1504 10.8206 20.0062 10.9583 19.8489 11.0763C19.4163 11.404 18.8788 11.6137 18.3348 11.6203C17.581 11.6203 16.8404 11.2205 16.4471 10.5781C16.3488 10.4143 16.2701 10.2373 16.198 10.0603C15.9948 9.55562 15.8375 9.0116 15.8572 8.46758C15.8769 7.92355 16.0735 7.35987 16.4864 6.99937" fill="#8A7D73"/>
<path d="M16.6044 7.34666C16.8731 6.90751 17.1943 6.45525 17.6072 6.13408C18.0398 5.7998 18.7542 5.9571 19.2458 6.08819C19.685 6.20618 20.0586 6.47491 20.3011 6.86163C20.583 7.32044 20.5502 7.7727 20.4846 8.29051C20.4191 8.84108 20.4519 9.41132 20.2946 9.95535C20.1372 10.4994 19.7505 10.8599 19.2589 11.1024C18.3872 11.5284 17.2991 11.3187 16.7355 10.4994C16.1128 9.59485 15.7851 8.02177 16.6765 7.18935C16.9386 6.94683 16.5454 6.55356 16.2832 6.79608C15.2476 7.75959 15.5229 9.31301 16.0735 10.4535C16.5913 11.535 17.8235 12.1052 18.9837 11.7972C19.5867 11.6399 20.1831 11.2663 20.5436 10.7484C20.9434 10.1716 20.9631 9.45065 21.0024 8.77554C21.0418 8.10043 21.2056 7.50397 20.9369 6.87473C20.7206 6.37004 20.3208 5.944 19.8226 5.70803C19.4818 5.54417 19.1147 5.48518 18.7477 5.4393C18.3806 5.39342 17.9743 5.34098 17.6072 5.49829C16.9714 5.77358 16.4798 6.49457 16.1324 7.07137C15.9489 7.37943 16.4274 7.66127 16.6109 7.35321L16.6044 7.34666Z" fill="#8A7D73"/>
<path d="M13.4059 8.03452C13.6353 9.1029 13.4321 10.4072 12.5145 11.1086C11.5969 11.8099 10.4957 11.5084 9.76162 10.7743C8.9292 9.94188 8.56215 8.63753 8.81777 7.4905C9.04718 6.46144 9.82061 5.52415 10.9545 5.56347C12.2589 5.61591 13.1372 6.87437 13.4125 8.03452C13.4977 8.38191 14.0352 8.23771 13.9499 7.88377C13.6419 6.59908 12.7177 5.30129 11.3413 5.05222C9.96481 4.80315 8.90298 5.64213 8.43761 6.8416C7.91981 8.17216 8.22787 9.77802 9.10617 10.8792C9.89927 11.8689 11.2298 12.3933 12.4293 11.823C13.8713 11.1348 14.2515 9.32576 13.9499 7.89032C13.8778 7.53638 13.3404 7.68713 13.4125 8.04107L13.4059 8.03452Z" fill="#8A7D73"/>
<path d="M7.82146 13.6126C8.0312 14.5892 7.84112 15.7821 7.00214 16.4245C6.16317 17.0668 5.16033 16.785 4.49177 16.1164C3.72489 15.3561 3.39717 14.1566 3.62658 13.1079C3.83632 12.1706 4.54421 11.312 5.57326 11.3513C6.76618 11.3972 7.56583 12.5508 7.82146 13.6126C7.90666 13.96 8.44413 13.8158 8.35892 13.4618C8.07708 12.2689 7.21189 11.0694 5.94031 10.8335C4.66874 10.5975 3.6659 11.3841 3.23331 12.4983C2.75483 13.7306 3.03667 15.2184 3.85598 16.2409C4.59009 17.1586 5.83544 17.6436 6.94315 17.1127C8.28027 16.4704 8.63421 14.7924 8.35237 13.4618C8.28027 13.1079 7.7428 13.2586 7.8149 13.6126H7.82146Z" fill="#8A7D73"/>
<path d="M15.5689 7.88398C15.2936 9.19488 15.5689 10.7286 16.6897 11.5676C17.7515 12.3673 19.1608 12.0985 20.0849 11.2268C21.1205 10.2502 21.5466 8.67052 21.2254 7.29408C20.937 6.07494 19.9604 5 18.6429 5C17.0502 5 15.9097 6.44854 15.5689 7.87743C15.4837 8.22481 16.0211 8.37557 16.1064 8.02818C16.362 6.95324 17.0764 5.87175 18.2103 5.60957C19.2787 5.3605 20.2226 6.08805 20.5765 7.06467C20.9763 8.17238 20.76 9.48983 20.0587 10.4271C19.436 11.2661 18.3087 11.8167 17.3058 11.2989C16.1457 10.7024 15.8638 9.20799 16.1129 8.03473C16.185 7.68734 15.6475 7.53659 15.5754 7.88398H15.5689Z" fill="#8A7D73"/>
<path d="M21.1533 13.4682C20.8977 14.6873 21.1533 16.1096 22.1954 16.8896C23.1852 17.6303 24.4961 17.3812 25.3547 16.5685C26.3182 15.6639 26.7115 14.1957 26.41 12.9242C26.1413 11.7902 25.2367 10.7939 24.0045 10.7939C22.5297 10.7939 21.4679 12.1376 21.1467 13.4682C21.0615 13.8156 21.599 13.9663 21.6842 13.6189C21.9202 12.6358 22.5691 11.646 23.6112 11.4035C24.5878 11.1741 25.4399 11.8361 25.7677 12.7275C26.1347 13.7435 25.9381 14.9495 25.2892 15.8147C24.7189 16.575 23.6899 17.0797 22.7788 16.6078C21.717 16.0572 21.4613 14.6939 21.6842 13.6189C21.7563 13.2715 21.2188 13.1208 21.1467 13.4682H21.1533Z" fill="#8A7D73"/>
<path d="M11.1708 16.0181C12.4359 15.1726 13.832 13.8158 15.4968 14.2353C19.2722 15.6118 25.8791 20.6915 21.6253 24.8143C20.8649 25.4632 18.6168 26.0006 17.8564 25.2338C17.6205 24.8208 17.7057 24.4997 17.6729 24.0212C17.7974 22.1532 16.788 20.1016 14.5857 20.3769C13.8254 20.4293 13.0979 20.9078 12.7439 21.6091C12.2523 22.553 12.5342 23.7131 12.4162 24.6897C12.3113 26.0859 10.2401 25.5549 9.33558 25.3059C7.41511 24.6111 6.70067 22.258 7.32335 20.4293C8.09678 18.7055 9.60432 17.2373 11.0856 16.0837L11.1708 16.0247V16.0181Z" fill="#8A7D73"/>
<path d="M11.3084 16.2543C12.036 15.7562 12.7177 15.1794 13.5108 14.7927C14.4743 14.3142 15.287 14.4059 16.2309 14.8385C17.5942 15.4678 18.8854 16.3002 20.0194 17.2965C21.1533 18.2928 22.1758 19.4529 22.5756 20.8818C22.9755 22.3107 22.4511 24.0411 21.1467 24.7948C20.4913 25.175 19.613 25.3782 18.8592 25.3192C18.2562 25.2733 17.9744 24.9783 17.9547 24.3491C17.9416 23.9427 17.9678 23.5429 17.9219 23.1365C17.7712 21.8912 17.1092 20.613 15.8507 20.2001C14.4087 19.7282 12.7504 20.4426 12.3113 21.9371C12.0425 22.835 12.3244 23.7723 12.1409 24.6768C11.977 25.483 11.0004 25.3585 10.3711 25.2471C9.53217 25.0963 8.77185 24.8407 8.20816 24.1656C7.59859 23.438 7.32986 22.4286 7.39541 21.4914C7.55271 19.3742 9.68948 17.421 11.315 16.2543C11.6034 16.0446 11.3281 15.5661 11.0332 15.7758C9.47974 16.8901 7.7559 18.5222 7.06113 20.3509C6.47122 21.9108 6.96281 23.9427 8.2606 24.998C9.13235 25.7059 11.0266 26.263 12.0819 25.6862C12.7373 25.3323 12.7308 24.5851 12.7308 23.9231C12.7308 22.5663 12.7898 21.0129 14.4218 20.6786C15.4902 20.4623 16.4734 20.9277 16.9846 21.8846C17.4959 22.8416 17.3058 23.7461 17.4303 24.7424C17.6401 26.4466 20.1111 25.896 21.1599 25.4175C22.4839 24.8079 23.336 23.189 23.2835 21.7601C23.2311 20.2263 22.3266 18.8564 21.3172 17.7684C19.9997 16.3526 18.3414 15.2056 16.5914 14.3863C15.7655 13.9996 14.9986 13.7439 14.081 13.9799C12.9274 14.2814 12.0032 15.1138 11.0397 15.7693C10.7448 15.9725 11.0266 16.4509 11.3216 16.2478L11.3084 16.2543Z" fill="#8A7D73"/>
</g>
<defs>
<clipPath id="clip0_3789_10992">
<rect width="30" height="30" fill="white"/>
</clipPath>
</defs>
</svg>
