<svg width="106" height="94" viewBox="0 0 106 94" fill="none" xmlns="http://www.w3.org/2000/svg">
<g filter="url(#filter0_i_134_122)">
<path d="M68 15C68 23.2843 61.2843 30 53 30C44.7157 30 38 23.2843 38 15C38 6.71573 44.7157 0 53 0C61.2843 0 68 6.71573 68 15Z" fill="#FFF9E6"/>
<path d="M106 35C106 43.2843 99.2843 50 91 50C82.7157 50 76 43.2843 76 35C76 26.7157 82.7157 20 91 20C99.2843 20 106 26.7157 106 35Z" fill="#FFF9E6"/>
<path d="M30 35C30 43.2843 23.2843 50 15 50C6.71573 50 0 43.2843 0 35C0 26.7157 6.71573 20 15 20C23.2843 20 30 26.7157 30 35Z" fill="#FFF9E6"/>
<path d="M66.0639 42.1509C59.4153 35.4543 48.5847 35.4543 41.9361 42.1509L23.7041 60.5144C16.0986 68.1747 16.0986 80.5943 23.7041 88.2547C31.3096 95.9152 43.6402 95.915 51.2457 88.2547C52.7637 86.7259 55.2363 86.7259 56.7543 88.2547C64.3598 95.9152 76.6904 95.915 84.2959 88.2547C91.9014 80.5945 91.9014 68.1748 84.2959 60.5144L66.0639 42.1509Z" fill="#FFF9E6"/>
</g>
<defs>
<filter id="filter0_i_134_122" x="0" y="0" width="106" height="98" filterUnits="userSpaceOnUse" color-interpolation-filters="sRGB">
<feFlood flood-opacity="0" result="BackgroundImageFix"/>
<feBlend mode="normal" in="SourceGraphic" in2="BackgroundImageFix" result="shape"/>
<feColorMatrix in="SourceAlpha" type="matrix" values="0 0 0 0 0 0 0 0 0 0 0 0 0 0 0 0 0 0 127 0" result="hardAlpha"/>
<feOffset dy="4"/>
<feGaussianBlur stdDeviation="2"/>
<feComposite in2="hardAlpha" operator="arithmetic" k2="-1" k3="1"/>
<feColorMatrix type="matrix" values="0 0 0 0 0 0 0 0 0 0 0 0 0 0 0 0 0 0 0.25 0"/>
<feBlend mode="normal" in2="shape" result="effect1_innerShadow_134_122"/>
</filter>
</defs>
</svg>
