<svg width="30" height="30" viewBox="0 0 30 30" fill="none" xmlns="http://www.w3.org/2000/svg">
<path d="M15 15C18.7279 15 21.75 11.9779 21.75 8.25C21.75 4.52208 18.7279 1.5 15 1.5C11.2721 1.5 8.25 4.52208 8.25 8.25C8.25 11.9779 11.2721 15 15 15Z" fill="#F7EFD8"/>
<path d="M30 24.432V21.984L28.482 21.732C28.3995 21.402 28.236 21.0765 27.996 20.592L27.975 20.55L28.9035 19.284L27.132 17.514L25.866 18.441C25.4983 18.2163 25.1002 18.0455 24.684 17.934L24.516 16.416H22.068L21.8565 17.6925L21.816 17.934C21.393 18.018 21.0555 18.189 20.634 18.441L19.368 17.5125L17.598 19.284L18.441 20.55C18.282 20.814 18.189 21.045 18.1005 21.285L18.063 21.39L18.048 21.4305C18.013 21.5265 17.975 21.6265 17.934 21.7305L16.5 21.9V24.3465L18.018 24.6015C18.1035 25.0215 18.273 25.359 18.525 25.7805L17.6805 27.0465L19.134 28.5L19.4535 28.8195L19.9335 28.5L20.7195 27.975C21.018 28.125 21.384 28.275 21.756 28.425L21.831 28.455L21.9 28.482L21.903 28.5L22.1535 30H24.684L24.9345 28.5L24.9375 28.482C25.359 28.3965 25.6965 28.227 26.118 27.975L26.8335 28.5L27.384 28.905L29.157 27.132L28.227 25.866C28.482 25.446 28.65 25.0215 28.734 24.684L30 24.432ZM23.25 25.6965C22.9161 25.7022 22.5844 25.6406 22.2747 25.5155C21.9651 25.3904 21.6837 25.2042 21.4475 24.9681C21.2113 24.732 21.0249 24.4508 20.8996 24.1412C20.7743 23.8316 20.7125 23.5 20.718 23.166C20.718 21.732 21.816 20.634 23.25 20.634C24.684 20.634 25.782 21.732 25.782 23.166C25.782 24.6 24.684 25.6965 23.25 25.6965ZM15 16.5C16.1085 16.5 17.127 16.5705 18.06 16.6995L15.669 19.0935L16.53 20.3865L15 20.5665V25.617L16.647 25.8915L15.75 27.237L17.013 28.5H3V24C3 21 6.1245 16.5 15 16.5Z" fill="#F7EFD8"/>
</svg>
