<svg width="20" height="20" viewBox="0 0 20 20" fill="none" xmlns="http://www.w3.org/2000/svg">
<path d="M15.8333 16.6667H4.16667C3.94566 16.6667 3.73369 16.7544 3.57741 16.9107C3.42113 17.067 3.33334 17.279 3.33334 17.5C3.33334 17.721 3.42113 17.933 3.57741 18.0892C3.73369 18.2455 3.94566 18.3333 4.16667 18.3333H15.8333C16.0544 18.3333 16.2663 18.2455 16.4226 18.0892C16.5789 17.933 16.6667 17.721 16.6667 17.5C16.6667 17.279 16.5789 17.067 16.4226 16.9107C16.2663 16.7544 16.0544 16.6667 15.8333 16.6667ZM4.16667 15H4.24167L7.71667 14.6833C8.09733 14.6454 8.45337 14.4777 8.725 14.2083L16.225 6.70832C16.5161 6.40079 16.6734 5.99041 16.6625 5.5671C16.6516 5.14379 16.4733 4.74207 16.1667 4.44998L13.8833 2.16665C13.5853 1.88673 13.1948 1.72612 12.7861 1.71536C12.3774 1.7046 11.979 1.84446 11.6667 2.10832L4.16667 9.60832C3.89731 9.87995 3.72959 10.236 3.69167 10.6166L3.33334 14.0917C3.32211 14.2137 3.33795 14.3367 3.37972 14.452C3.42149 14.5672 3.48817 14.6718 3.575 14.7583C3.65287 14.8356 3.74522 14.8967 3.84675 14.9381C3.94828 14.9796 4.057 15.0006 4.16667 15ZM12.725 3.33332L15 5.60832L13.3333 7.23332L11.1 4.99998L12.725 3.33332Z" fill="#837266"/>
</svg>
