<svg width="30" height="30" viewBox="0 0 30 30" fill="none" xmlns="http://www.w3.org/2000/svg">
<path d="M8.74749 12.8085L9.29124 13.7585C9.63749 14.3648 9.80999 14.6673 9.80999 14.9998C9.80999 15.3323 9.63749 15.6348 9.29124 16.2398L8.74749 17.191C7.19999 19.8998 6.42624 21.2535 7.02874 21.926C7.63249 22.5973 9.06249 21.9723 11.92 20.7223L19.765 17.2898C22.0087 16.3085 23.1312 15.8173 23.1312 14.9998C23.1312 14.1823 22.0087 13.691 19.765 12.7098L11.92 9.27726C9.06249 8.02726 7.63249 7.40226 7.02874 8.07351C6.42624 8.74476 7.19999 10.0985 8.74749 12.8085Z" fill="#A4C8C4"/>
</svg>
