<svg width="21" height="21" viewBox="0 0 21 21" fill="none" xmlns="http://www.w3.org/2000/svg">
<path fill-rule="evenodd" clip-rule="evenodd" d="M20.6667 8.75C20.6667 5.23875 20.6667 3.48375 19.8242 2.2225C19.4592 1.67636 18.9903 1.20744 18.4442 0.8425C17.1829 -2.98023e-07 15.4292 0 11.9167 0H9.41666C5.90541 0 4.15041 -2.98023e-07 2.88916 0.8425C2.34298 1.20739 1.87404 1.67632 1.50916 2.2225C0.666656 3.48375 0.666656 5.2375 0.666656 8.75C0.666656 12.2612 0.666656 14.0163 1.50916 15.2775C1.87404 15.8237 2.34298 16.2926 2.88916 16.6575C3.99041 17.3938 5.46916 17.4862 8.16666 17.4988L9.54916 20.2638C9.65308 20.4711 9.81264 20.6455 10.01 20.7673C10.2074 20.8891 10.4347 20.9537 10.6667 20.9537C10.8986 20.9537 11.126 20.8891 11.3233 20.7673C11.5207 20.6455 11.6802 20.4711 11.7842 20.2638L13.1667 17.5C15.8642 17.4875 17.3417 17.3938 18.4442 16.6575C18.9903 16.2925 19.4592 15.8236 19.8242 15.2775C20.6667 14.0163 20.6667 12.2625 20.6667 8.75ZM6.91666 5C6.58514 5 6.26719 5.1317 6.03277 5.36612C5.79835 5.60054 5.66666 5.91848 5.66666 6.25C5.66666 6.58152 5.79835 6.89946 6.03277 7.13388C6.26719 7.3683 6.58514 7.5 6.91666 7.5H14.4167C14.7482 7.5 15.0661 7.3683 15.3005 7.13388C15.535 6.89946 15.6667 6.58152 15.6667 6.25C15.6667 5.91848 15.535 5.60054 15.3005 5.36612C15.0661 5.1317 14.7482 5 14.4167 5H6.91666ZM6.91666 10C6.58514 10 6.26719 10.1317 6.03277 10.3661C5.79835 10.6005 5.66666 10.9185 5.66666 11.25C5.66666 11.5815 5.79835 11.8995 6.03277 12.1339C6.26719 12.3683 6.58514 12.5 6.91666 12.5H10.6667C10.9982 12.5 11.3161 12.3683 11.5505 12.1339C11.785 11.8995 11.9167 11.5815 11.9167 11.25C11.9167 10.9185 11.785 10.6005 11.5505 10.3661C11.3161 10.1317 10.9982 10 10.6667 10H6.91666Z" fill="#8A7D73"/>
</svg>
