<svg width="21" height="21" viewBox="0 0 21 21" fill="none" xmlns="http://www.w3.org/2000/svg">
<path fill-rule="evenodd" clip-rule="evenodd" d="M20.6666 8.75C20.6666 5.23875 20.6666 3.48375 19.8241 2.2225C19.4592 1.67636 18.9903 1.20744 18.4441 0.8425C17.1829 -2.98023e-07 15.4291 0 11.9166 0H9.41663C5.90538 0 4.15038 -2.98023e-07 2.88913 0.8425C2.34295 1.20739 1.87401 1.67632 1.50913 2.2225C0.666626 3.48375 0.666626 5.2375 0.666626 8.75C0.666626 12.2612 0.666626 14.0163 1.50913 15.2775C1.87401 15.8237 2.34295 16.2926 2.88913 16.6575C3.99038 17.3938 5.46913 17.4862 8.16663 17.4988L9.54913 20.2638C9.65305 20.4711 9.81261 20.6455 10.01 20.7673C10.2073 20.8891 10.4347 20.9537 10.6666 20.9537C10.8986 20.9537 11.1259 20.8891 11.3233 20.7673C11.5206 20.6455 11.6802 20.4711 11.7841 20.2638L13.1666 17.5C15.8641 17.4875 17.3416 17.3938 18.4441 16.6575C18.9902 16.2925 19.4592 15.8236 19.8241 15.2775C20.6666 14.0163 20.6666 12.2625 20.6666 8.75ZM6.91663 5C6.58511 5 6.26716 5.1317 6.03274 5.36612C5.79832 5.60054 5.66663 5.91848 5.66663 6.25C5.66663 6.58152 5.79832 6.89946 6.03274 7.13388C6.26716 7.3683 6.58511 7.5 6.91663 7.5H14.4166C14.7481 7.5 15.0661 7.3683 15.3005 7.13388C15.5349 6.89946 15.6666 6.58152 15.6666 6.25C15.6666 5.91848 15.5349 5.60054 15.3005 5.36612C15.0661 5.1317 14.7481 5 14.4166 5H6.91663ZM6.91663 10C6.58511 10 6.26716 10.1317 6.03274 10.3661C5.79832 10.6005 5.66663 10.9185 5.66663 11.25C5.66663 11.5815 5.79832 11.8995 6.03274 12.1339C6.26716 12.3683 6.58511 12.5 6.91663 12.5H10.6666C10.9981 12.5 11.3161 12.3683 11.5505 12.1339C11.7849 11.8995 11.9166 11.5815 11.9166 11.25C11.9166 10.9185 11.7849 10.6005 11.5505 10.3661C11.3161 10.1317 10.9981 10 10.6666 10H6.91663Z" fill="#593922"/>
</svg>
