<svg width="375" height="156" viewBox="0 0 375 156" fill="none" xmlns="http://www.w3.org/2000/svg">
<path d="M45.13 108.33C44.46 108.33 43.82 107.8 43.67 107.12C43.56 106.6 43.76 106.17 44.23 105.91C44.5 105.76 44.72 105.52 44.84 105.24C44.9 105.12 44.97 104.93 45.02 104.78C45.18 104.35 45.38 103.83 45.72 103.36C46.14 102.79 46.8 102.36 47.33 102.03C47.5 101.92 47.73 101.77 47.85 101.68C48 101.57 48.12 101.43 48.22 101.28C48.37 101.03 48.67 100.81 48.98 100.72C49.25 100.64 49.49 100.48 49.67 100.26C49.83 100.06 50.04 99.9199 50.28 99.8299C50.55 99.7299 50.79 99.5499 50.96 99.3099C51.24 98.9199 51.64 98.6899 52.06 98.6899C52.15 98.6899 52.23 98.6899 52.32 98.7199C52.41 98.7399 52.51 98.7499 52.6 98.7499C52.79 98.7499 52.99 98.7099 53.17 98.6299C53.34 98.5599 53.94 98.2799 53.94 98.2799C54.9 97.8399 55.02 97.7799 56.11 97.6399C56.47 97.5899 56.85 97.5299 57.23 97.4699C58.12 97.3299 59.03 97.1899 59.82 97.1499H59.96C60.23 97.1499 60.48 97.2099 60.69 97.2699C60.82 97.2999 60.97 97.3199 61.12 97.3199C61.42 97.3199 61.74 97.2499 61.97 97.0899C62.18 96.9399 62.38 96.8799 62.62 96.8799C62.92 96.8799 63.26 96.9899 63.52 97.1799C63.77 97.3599 64.06 97.4399 64.34 97.4399C64.42 97.4399 64.5 97.4399 64.57 97.4199H64.61C64.78 97.4199 64.92 97.4499 65.06 97.4999C65.59 97.7199 66.05 97.9999 66.32 98.2599C66.48 98.4099 66.67 98.5199 66.87 98.5799C67.46 98.7599 67.83 99.3099 67.82 99.9799C67.8 100.72 67.3 101.24 66.59 101.24H66.49C65.67 101.2 65.33 100.95 64.91 100.59C64.72 100.42 64.51 100.25 64.22 100.13C63.81 99.9699 63.51 99.9499 63.25 99.9299C63.25 99.9299 62.97 99.9099 62.92 99.9099C62.74 99.9099 62.56 99.9399 62.39 100.01C62.05 100.15 61.76 100.16 61.2 100.18C61.03 100.18 60.84 100.19 60.62 100.2C60.31 100.22 60.16 100.22 60.05 100.22C59.81 100.22 59.77 100.22 58.84 100.34C58.39 100.39 58.06 100.41 57.76 100.41C57.48 100.41 57.22 100.4 56.98 100.39C56.74 100.38 56.56 100.37 56.37 100.37C55.6 100.37 54.95 100.53 54.1 101.34C53.88 101.55 53.6 101.69 53.31 101.73C53.03 101.77 52.77 101.9 52.57 102.09C52.47 102.19 52.35 102.26 52.22 102.32C51.97 102.44 51.76 102.62 51.61 102.86C51.39 103.22 51.02 103.48 50.66 103.52C50.4 103.55 50.16 103.65 49.96 103.81C49.84 103.9 49.73 103.97 49.65 104.03C49.44 104.16 49.25 104.24 49.07 104.32C48.76 104.45 48.48 104.57 48.18 104.87C47.64 105.42 47.44 105.96 47.27 106.44C47.02 107.13 46.8 107.72 45.72 108.2C45.52 108.29 45.32 108.33 45.12 108.33H45.13Z" fill="#93B3AF"/>
<path d="M39.79 122.06C38.62 122.06 37.58 121.78 36.29 121.14C35.95 120.97 35.7 120.6 35.63 120.16C35.58 119.86 35.44 119.58 35.22 119.36C34.9 119.05 34.75 118.65 34.79 118.23C34.82 117.93 34.75 117.62 34.59 117.36L34.53 117.25C34.22 116.69 34.31 116.01 34.74 115.59C34.78 115.56 34.83 115.5 34.91 115.44C35.16 115.26 35.34 114.99 35.42 114.7C35.56 114.21 35.88 113.88 36.35 113.73C37.39 113.4 37.98 112.67 38.55 111.96C38.96 111.45 39.35 110.96 39.89 110.62C40.09 110.5 40.25 110.32 40.36 110.12C40.64 109.62 41.01 109.38 41.44 109.09C41.72 108.9 42.04 108.69 42.36 108.38C42.54 108.2 42.67 107.98 42.74 107.74C42.87 107.27 43.17 106.76 43.31 106.54C43.76 106.05 44.25 105.92 44.86 105.75L45.11 105.68C45.25 105.64 45.39 105.62 45.52 105.62C46.17 105.62 46.69 106.12 46.79 106.83C46.88 107.48 46.55 108.04 45.96 108.26C45.59 108.39 45.3 108.67 45.15 109.03L45.1 109.14C44.96 109.46 44.8 109.82 44.46 110.14C44.12 110.46 43.82 110.64 43.54 110.8C43.39 110.89 43.29 110.95 43.2 111.01C42.92 111.21 42.72 111.51 42.65 111.85C42.56 112.26 42.2 112.65 41.8 112.78C41.5 112.88 41.24 113.08 41.06 113.34C41 113.42 40.93 113.52 40.84 113.62C40.67 113.8 40.56 113.96 40.46 114.11C40.28 114.37 40.13 114.59 39.81 114.86C39.4 115.21 38.98 115.5 38.53 115.75C38.15 115.96 37.89 116.33 37.81 116.76C37.74 117.19 37.87 117.62 38.16 117.95C38.27 118.08 38.37 118.23 38.43 118.39C38.63 118.91 39.11 119.27 39.66 119.31C39.81 119.31 39.95 119.33 40.09 119.33C40.44 119.33 40.96 119.3 41.45 119.13C42.01 118.94 42.22 118.7 42.5 118.32C42.65 118.12 42.81 117.91 43.08 117.7C43.3 117.53 43.55 117.43 43.77 117.34C44.07 117.21 44.35 117.1 44.6 116.84C44.87 116.56 45.18 116.42 45.51 116.42C46.04 116.42 46.57 116.79 46.8 117.33C47.01 117.82 46.91 118.36 46.53 118.76C46 119.31 45.59 119.6 45.23 119.85C44.97 120.03 44.76 120.18 44.52 120.39C43.71 121.1 43.06 121.53 41.91 121.81C41.14 121.99 40.46 122.08 39.82 122.08L39.79 122.06Z" fill="#93B3AF"/>
<path d="M71.41 113.21C70.31 113.13 68.99 112.21 68.23 111.39C67.85 110.98 67.75 110.44 67.97 109.94C68.2 109.41 68.73 109.04 69.25 109.04C69.58 109.04 69.9 109.19 70.15 109.46C70.33 109.65 70.55 109.85 70.74 110C70.99 110.2 71.3 110.3 71.61 110.3C71.72 110.3 71.83 110.29 71.94 110.26C72.11 110.22 72.29 110.19 72.47 110.15C72.51 110.15 72.55 110.13 72.59 110.12C73.06 109.99 73.44 109.9 73.78 109.9C74.1 109.9 74.48 109.79 74.73 109.6C74.84 109.51 74.95 109.45 75.07 109.4C75.32 109.3 75.53 109.14 75.69 108.93C75.85 108.71 76.05 108.55 76.27 108.47C76.72 108.29 77.05 107.89 77.14 107.41C77.23 106.93 77.07 106.44 76.71 106.11C76.68 106.08 76.64 106.04 76.61 106.01C76.56 105.95 76.51 105.89 76.47 105.83C76.31 105.58 76.08 105.39 75.81 105.29C75.48 105.16 75.17 104.93 74.84 104.58C74.57 104.3 74.2 104.14 73.82 104.14C73.79 104.14 73.61 104.14 73.54 104.14C73.41 104.14 73.24 104.13 73.04 104.1L72.9 104.08C72.49 104.03 72.22 103.99 71.87 103.7C71.86 103.7 71.8 103.63 71.72 103.55C71.45 103.25 71.06 103.08 70.67 103.08C70.54 103.08 70.41 103.1 70.28 103.13L70.05 103.19C69.94 103.22 69.81 103.23 69.7 103.23C69.23 103.23 68.8 102.97 68.52 102.51C68.33 102.19 68.02 101.96 67.66 101.87C67.18 101.75 66.75 101.51 65.97 100.69C65.59 100.29 65.49 99.7498 65.7 99.2498C65.93 98.7198 66.46 98.3398 66.99 98.3398C67.32 98.3398 67.64 98.4798 67.89 98.7598L67.97 98.8498C68.24 99.1398 68.61 99.2999 69.01 99.2999C69.11 99.2999 69.24 99.2999 69.39 99.2999C69.82 99.3199 70.18 99.4998 70.44 99.8298C70.64 100.09 70.93 100.27 71.25 100.34C71.42 100.38 71.59 100.43 71.78 100.49C72.37 100.67 72.64 100.83 72.9 100.99C73.12 101.13 73.37 101.2 73.63 101.21C73.77 101.21 73.95 101.23 74.12 101.25L74.32 101.27C74.91 101.33 75.08 101.43 75.54 101.69C75.73 101.8 75.9 101.94 76.05 102.07C76.24 102.23 76.38 102.34 76.52 102.43L76.65 102.51C76.87 102.65 77.13 102.73 77.39 102.73C77.98 102.73 78.53 103.15 78.68 103.68C78.74 103.91 78.86 104.12 79.02 104.29C79.17 104.44 79.31 104.54 79.4 104.6C79.6 104.75 79.78 104.88 79.92 105.05C80.32 105.56 80.6 106.25 80.63 106.84C80.66 107.37 80.47 108.58 80.16 109.1C79.93 109.48 79.71 109.64 79.56 109.74C79.35 109.89 79.18 110.09 79.08 110.33C78.9 110.74 78.59 111.03 78.19 111.15C77.92 111.23 77.68 111.39 77.5 111.61C77.31 111.84 77.01 112.02 76.72 112.08C76.4 112.14 76.12 112.31 75.91 112.56C75.71 112.8 75.32 112.96 74.95 112.96C74.82 112.96 74.7 112.94 74.59 112.91L74.46 112.86C74.29 112.79 74.1 112.75 73.92 112.75C73.82 112.75 73.71 112.76 73.61 112.78L73.51 112.8C73.31 112.84 73.1 112.89 72.88 112.95C72.41 113.07 71.93 113.19 71.53 113.19H71.41V113.21Z" fill="#93B3AF"/>
<path d="M55.8 127.38C55.08 127.38 54.34 127.24 53.55 127.08L53.33 127.04C52.66 126.91 52.05 126.6 51.51 126.34C50.75 125.96 50.37 125.8 49.96 125.79H49.92C49.8 125.79 49.68 125.8 49.56 125.83C49.5 125.85 49.39 125.86 49.26 125.86C48.68 125.86 48.21 125.51 48 124.92C47.89 124.6 47.66 124.33 47.37 124.16C46.05 123.41 45.54 121.92 45.08 120.61C44.83 119.89 44.59 119.21 44.24 118.69C43.97 118.29 43.93 117.85 44.14 117.46C44.38 117 44.91 116.7 45.46 116.7C45.92 116.7 46.32 116.92 46.59 117.32C46.82 117.66 46.96 117.97 47.11 118.3C47.19 118.48 47.26 118.64 47.35 118.81C47.42 118.95 47.55 119.2 47.55 119.29C47.55 119.54 47.63 119.82 47.77 120.03C48.06 120.49 48.47 121.13 48.59 121.3C48.61 121.33 48.64 121.37 48.66 121.4C48.85 121.66 49.17 121.91 49.48 122C49.86 122.11 50.15 122.34 50.32 122.68C50.5 123.02 50.81 123.28 51.18 123.39C51.76 123.56 52.35 123.8 52.92 124.02C54.06 124.47 54.85 124.77 55.5 124.79C55.53 124.79 55.56 124.79 55.6 124.79C55.93 124.79 56.25 124.68 56.52 124.46C56.79 124.23 57.1 124.11 57.42 124.11C57.51 124.11 57.59 124.11 57.68 124.13C57.76 124.14 57.84 124.15 57.92 124.15C58.12 124.15 58.31 124.11 58.49 124.03L58.61 123.98C58.82 123.9 59.01 123.78 59.36 123.55C59.56 123.41 59.78 123.27 59.98 123.17C60.36 123 60.75 122.89 61.13 122.79C61.45 122.71 61.73 122.63 62 122.53L62.09 122.5C62.28 122.45 62.45 122.35 62.6 122.23C62.75 122.1 62.92 122.02 63.1 121.96C63.36 121.89 63.59 121.74 63.77 121.54C63.86 121.44 63.98 121.35 64.11 121.27C64.36 121.13 64.57 120.91 64.69 120.65C64.87 120.27 65.19 120 65.57 119.91C65.96 119.82 66.29 119.56 66.48 119.21C66.65 118.89 66.83 118.57 67.01 118.26C68.07 116.37 69.17 114.41 68.96 112.14C68.94 111.88 68.96 111.52 69.23 111.22C69.45 110.97 69.81 110.83 70.19 110.83C70.99 110.83 71.6 111.37 71.68 112.13C71.93 114.89 70.89 116.74 69.77 118.7C69.26 119.6 68.74 120.52 68.3 121.57C68.12 122.01 67.86 122.31 67.53 122.45C67.27 122.57 67.05 122.76 66.9 123C66.77 123.22 66.57 123.4 66.36 123.51C66.1 123.64 65.89 123.85 65.75 124.11C65.52 124.55 65.05 124.81 64.5 124.81C64.45 124.81 64.24 124.8 64.2 124.8C63.96 124.8 63.73 124.86 63.52 124.97C63.09 125.2 62.64 125.31 62.16 125.42C61.64 125.54 61.05 125.67 60.4 126C60.04 126.18 59.76 126.35 59.51 126.5C58.95 126.84 58.62 127.02 58.17 127.02C58.11 127.02 58.05 127.02 57.98 127.01C57.93 127.01 57.87 127.01 57.82 127.01C57.64 127.01 57.46 127.05 57.29 127.11C56.84 127.29 56.36 127.38 55.8 127.38Z" fill="#93B3AF"/>
<path d="M51.88 113.99C50.91 113.99 50.24 113.29 50.24 112.29C50.24 111.84 50.39 111.43 50.65 111.12C50.95 110.77 51.37 110.59 51.88 110.59C52.39 110.59 52.81 110.77 53.11 111.12C53.37 111.43 53.52 111.84 53.52 112.29C53.52 113.29 52.84 113.99 51.88 113.99Z" fill="#93B3AF"/>
<path d="M61.31 111.2C60.34 111.2 59.67 110.5 59.67 109.5C59.67 109.05 59.82 108.64 60.08 108.33C60.38 107.98 60.8 107.8 61.31 107.8C61.82 107.8 62.24 107.98 62.54 108.33C62.81 108.64 62.95 109.05 62.95 109.5C62.95 110.5 62.27 111.2 61.31 111.2Z" fill="#93B3AF"/>
<path d="M56.98 114.96C56.51 114.96 56.04 114.7 55.78 114.29C55.6 114.01 55.55 113.68 55.63 113.34C55.72 112.96 55.95 112.63 56.27 112.43C56.56 112.25 56.93 112.16 57.36 112.15H57.6C57.67 112.15 57.75 112.15 57.82 112.13C57.89 112.12 57.97 112.11 58.04 112.11C58.63 112.11 59.16 112.51 59.36 113.11C59.46 113.43 59.43 113.77 59.26 114.09C59.08 114.43 58.77 114.69 58.41 114.79C58.17 114.86 57.94 114.86 57.72 114.86C57.59 114.86 57.46 114.88 57.33 114.92C57.22 114.95 57.1 114.97 56.98 114.97V114.96Z" fill="#93B3AF"/>
<path d="M55.68 120.2C55.32 120.2 55.02 120.12 54.79 119.95C54.5 119.75 54.35 119.47 54.2 119.19C54.12 119.03 54.05 118.92 53.98 118.81C53.78 118.51 53.75 118.18 53.9 117.89C54.08 117.55 54.48 117.32 54.89 117.32C54.94 117.32 55 117.32 55.05 117.33C55.13 117.34 55.2 117.35 55.28 117.35C55.7 117.35 56.11 117.16 56.38 116.83C56.7 116.44 56.78 115.9 56.6 115.42C56.48 115.12 56.51 114.81 56.67 114.54C56.87 114.22 57.26 113.99 57.62 113.99C57.96 113.99 58.24 114.17 58.42 114.5C58.5 114.66 58.59 114.79 58.69 114.91C58.87 115.16 59.01 115.36 59.1 115.67C59.14 115.83 59.19 115.99 59.24 116.15C59.33 116.46 59.41 116.73 59.47 116.99C59.58 117.53 59.36 118.07 58.92 118.36C58.85 118.4 58.76 118.45 58.66 118.48C58.4 118.58 58.18 118.75 58.02 118.97C57.88 119.16 57.75 119.31 57.62 119.45C57.24 119.86 56.88 120.06 56.34 120.13C56.14 120.16 55.92 120.18 55.72 120.18L55.68 120.2Z" fill="#93B3AF"/>
<path d="M61.08 118.65C60.55 118.65 59.85 118.41 59.3 118.2C59 118.09 58.76 117.91 58.55 117.65C58.47 117.55 58.38 117.44 58.31 117.32C58.24 117.2 58.15 117.09 58.05 117C57.78 116.75 57.69 116.41 57.79 116.04C57.92 115.57 58.32 115.23 58.76 115.23C58.93 115.23 59.11 115.28 59.27 115.38C59.34 115.42 59.41 115.47 59.46 115.52C59.72 115.76 60.07 115.9 60.42 115.9C60.51 115.9 60.61 115.9 60.7 115.87C61.15 115.78 61.52 115.48 61.71 115.07C61.93 114.66 62.21 114.48 62.55 114.48C62.92 114.48 63.31 114.71 63.5 115.03C63.68 115.33 63.68 115.69 63.5 116.01C63.4 116.19 63.35 116.38 63.33 116.57C63.31 116.66 63.28 116.76 63.25 116.84C63.11 117.17 62.9 117.42 62.71 117.64C62.41 117.99 61.91 118.57 61.19 118.63C61.15 118.63 61.1 118.63 61.06 118.63L61.08 118.65Z" fill="#93B3AF"/>
<path d="M166.12 55.7901C165.5 55.7901 165.06 55.4401 164.92 54.8201L164.85 54.5401C164.74 54.1101 164.64 53.7101 164.72 53.2701C164.79 52.9201 164.73 52.5001 164.55 52.2001C164.46 52.0501 164.37 51.9001 164.28 51.7301C164.06 51.3201 163.66 51.0401 163.19 50.9901C163.13 50.9901 163.08 50.9801 163.02 50.9801C162.62 50.9801 162.23 51.1501 161.96 51.4601C161.92 51.5001 161.88 51.5401 161.84 51.5801C161.72 51.6901 161.6 51.7701 161.47 51.8201C161.15 51.9501 160.89 52.1801 160.73 52.4901C160.59 52.7701 160.4 52.9401 160.12 53.0601C159.71 53.2201 159.41 53.5601 159.28 53.9801C159.22 54.1801 159.15 54.3701 159.08 54.5401C159.03 54.6801 158.99 54.7701 158.96 54.8501C158.76 55.4301 158.26 55.7901 157.65 55.7901C157.16 55.7901 156.72 55.5801 156.47 55.2201C156.25 54.9201 156.21 54.5301 156.34 54.1201C156.46 53.7701 156.51 53.4301 156.56 53.1001C156.64 52.5801 156.71 52.0901 157.01 51.6101C157.34 51.0801 157.65 50.9001 157.85 50.8101C158.17 50.6701 158.43 50.4101 158.58 50.0901C158.66 49.9201 158.78 49.7701 158.95 49.6301C159.09 49.5201 159.22 49.4501 159.38 49.4001C159.77 49.3001 160.1 49.0301 160.28 48.6701C160.51 48.2101 160.74 47.9301 161.03 47.7601C161.25 47.6301 161.47 47.5701 161.69 47.5701C162.06 47.5701 162.49 47.4301 162.76 47.1701C162.98 46.9501 163.2 46.8701 163.52 46.8701C163.68 46.8701 163.85 46.8901 164.05 46.9401C165.06 47.1801 165.73 47.8101 166.11 48.8501C166.51 49.9601 166.83 50.7501 167.52 51.6501C167.88 52.1201 167.98 52.5601 167.84 53.0901C167.81 53.2201 167.77 53.3301 167.72 53.4101C167.59 53.6601 167.54 53.9501 167.57 54.2401C167.62 54.6201 167.53 54.9501 167.31 55.2301C167.04 55.5801 166.58 55.7901 166.12 55.7901Z" fill="#93B3AF"/>
<path d="M174.69 58.5505C174.62 58.5505 174.55 58.5505 174.47 58.5305C174.32 58.5105 174.2 58.5105 174.05 58.5105C173.47 58.5105 172.91 58.5005 172.49 58.2805C172.32 58.1905 172.18 58.0905 172.08 57.9805C171.87 57.7505 171.58 57.6005 171.27 57.5505C171.06 57.5205 170.85 57.4105 170.65 57.2205L170.57 57.1405C170.3 56.8605 169.93 56.7105 169.55 56.7105C169.5 56.7105 169.46 56.7105 169.41 56.7105C169.12 56.7405 168.86 56.7505 168.68 56.7505C168.39 56.7505 168.21 56.7305 168.15 56.7205C167.87 56.6505 167.62 56.4505 167.36 56.2505C167.23 56.0805 167.06 55.9305 166.88 55.8405C166.88 55.8405 166.63 55.7005 166.59 55.6805C165.96 55.3905 165.63 54.7205 165.77 54.0105C165.89 53.3905 166.33 52.9805 166.86 52.9805C167.02 52.9805 167.19 53.0205 167.36 53.0905L167.52 53.1605C167.86 53.3005 168.18 53.4305 168.46 53.6005C168.68 53.7305 168.93 53.8005 169.18 53.8005C169.31 53.8005 169.45 53.7805 169.57 53.7405C169.72 53.7005 169.85 53.6805 169.95 53.6605C170.06 53.6405 170.18 53.6305 170.3 53.6305C170.93 53.6305 171.65 53.8905 172.08 54.2805C172.29 54.4805 172.6 54.6605 172.89 54.7105C173.02 54.7305 173.16 54.7805 173.3 54.8705C173.47 54.9705 173.6 55.0905 173.7 55.2505C173.94 55.6205 174.33 55.8605 174.77 55.9005C174.91 55.9105 175.05 55.9305 175.19 55.9505C175.84 56.0405 176.22 56.5005 176.17 57.1405C176.13 57.7405 175.64 58.5905 174.69 58.5905V58.5505Z" fill="#93B3AF"/>
<path d="M182.6 65.0401C182.11 65.0401 181.6 64.7501 181.33 64.3101C181.08 63.9001 181.07 63.4401 181.31 62.9901L181.57 62.5001C181.81 62.0501 181.78 61.5001 181.5 61.0701C181.48 61.0401 181.46 61.0001 181.44 60.9601C181.3 60.6601 181.11 60.0701 181.42 59.6201C181.65 59.2801 181.72 58.8701 181.62 58.4701C181.52 58.0601 181.22 57.6801 180.84 57.5001C180.63 57.4001 180.4 57.3401 180.16 57.3401C179.97 57.3401 179.79 57.3801 179.62 57.4601C179.15 57.6801 178.68 57.7001 178.22 57.7201C177.87 57.7401 177.5 57.8901 177.25 58.1401C176.9 58.5201 176.55 58.7701 176.22 59.0201L176.06 59.1401C175.83 59.3101 175.58 59.4001 175.34 59.4001C174.83 59.4001 174.36 59.0101 174.17 58.4301C173.96 57.8001 174.17 57.1801 174.68 56.8001C174.94 56.6101 175.12 56.3701 175.3 56.1401C175.51 55.8601 175.73 55.5801 176.08 55.3801C176.54 55.1201 177.01 55.1101 177.47 55.1001C177.86 55.0901 178.3 54.9201 178.56 54.6301C178.57 54.6201 178.62 54.5701 178.63 54.5601C178.84 54.3301 179.02 54.1401 179.4 53.9901C179.66 53.8901 179.92 53.8401 180.23 53.8401C180.39 53.8401 180.55 53.8501 180.72 53.8701C180.77 53.8701 180.82 53.8701 180.88 53.8701C181.11 53.8701 181.34 53.8101 181.54 53.7001C181.95 53.4801 182.38 53.3701 182.77 53.3701C183.12 53.3701 183.45 53.4701 183.72 53.6501C184.21 53.9901 184.76 54.7701 184.78 55.4501C184.78 55.5301 184.78 55.6101 184.76 55.6801C184.71 55.9801 184.75 56.2901 184.88 56.5601C185.07 56.9501 184.98 57.4501 184.81 57.7601C184.63 58.1001 184.59 58.5001 184.71 58.8701C184.82 59.2001 184.85 59.4701 184.81 59.7101C184.8 59.7901 184.78 59.8701 184.75 59.9501C184.66 60.2201 184.66 60.5001 184.73 60.7701C184.79 60.9901 184.8 61.2101 184.81 61.4201C184.83 62.2801 184.38 63.0501 183.95 63.8101C183.83 64.0201 183.73 64.2001 183.63 64.3801C183.4 64.8101 183.01 65.0601 182.57 65.0601L182.6 65.0401Z" fill="#93B3AF"/>
<path d="M171.94 79.2C171.69 79.2 171.45 79.2 171.22 79.19C169.89 79.15 168.74 78.96 167.62 78.77C166.81 78.64 166.08 78.52 165.29 78.44C164.93 78.4 164.58 78.38 164.23 78.35C162.8 78.25 161.48 78.16 160.5 77.21C160.26 76.98 159.96 76.84 159.63 76.82C158.86 76.76 158.21 76.52 157.61 76.08C157.3 75.85 157.08 75.54 156.89 75.26L156.76 75.08C156.49 74.71 156.06 74.49 155.61 74.49C155.56 74.49 155.51 74.49 155.47 74.49C155.42 74.49 155.36 74.49 155.3 74.49C154.7 74.49 154.22 74.15 154.01 73.57C153.89 73.23 153.63 72.95 153.3 72.78C153.11 72.69 152.92 72.58 152.71 72.46C152.41 72.28 152.17 71.97 152.08 71.63C152 71.33 151.83 71.07 151.59 70.88C151.21 70.58 151.03 70.13 151.09 69.6C151.13 69.26 151.04 68.93 150.85 68.65C150.73 68.47 150.49 68.19 150.32 67.98C149.96 67.56 149.59 67.13 149.44 66.69C149.4 66.58 149.39 66.43 149.52 66.17C149.77 65.68 149.72 65.1 149.38 64.66C149.22 64.45 149.15 64.27 149.14 64.06C149.14 62.96 149.42 61.37 149.6 60.63C149.8 59.83 150.17 59.12 150.54 58.43C150.9 57.75 151.27 57.05 151.45 56.29C151.55 55.85 151.94 55.47 152.4 55.34C153.39 55.06 153.82 54.74 154.28 54.36C154.76 53.96 155.17 53.61 156.71 53.5H156.82C157.52 53.5 157.99 53.97 158.02 54.71C158.05 55.53 157.5 56.17 156.71 56.22C154.97 56.34 152.82 57.49 152.48 62.32C152.48 62.44 152.43 62.56 152.35 62.71C152.13 63.1 152.11 63.58 152.3 63.99C152.34 64.09 152.34 64.13 152.34 64.15C152.34 64.26 152.32 64.42 152.3 64.61C152.28 64.86 152.23 65.37 152.21 65.77C152.19 66.24 152.4 66.7 152.79 66.98C153.2 67.28 153.69 67.68 153.82 68C153.87 68.12 153.9 68.25 153.93 68.38C153.98 68.69 154.14 68.96 154.36 69.17C154.54 69.34 154.67 69.54 154.74 69.77C154.87 70.2 155.2 70.55 155.63 70.7C155.88 70.79 156.09 70.96 156.25 71.2C156.42 71.46 156.67 71.66 156.96 71.76C157.32 71.89 157.72 72.15 158.17 72.45C158.48 72.66 158.7 72.96 158.9 73.22C159.01 73.37 159.13 73.53 159.22 73.63C159.49 73.93 159.87 74.1 160.27 74.1C160.33 74.1 160.39 74.1 160.44 74.09C160.6 74.07 160.71 74.06 160.83 74.06C161.37 74.06 161.8 74.28 162.02 74.67C162.12 74.84 162.25 74.99 162.41 75.11C163.12 75.63 164.58 75.93 167.81 76.21C168.55 76.27 169.13 76.32 169.51 76.39C170.01 76.48 170.78 76.53 171.63 76.53C175.17 76.53 179.4 75.7 179.67 73.37C179.73 72.83 179.96 72.42 180.32 72.2C180.67 71.99 180.91 71.64 180.98 71.24C181.07 70.73 181.19 70.21 181.3 69.71C181.74 67.78 182.18 65.8 181.49 64.14C181.33 63.75 181.35 63.38 181.55 63.08C181.78 62.74 182.25 62.51 182.74 62.51C183.37 62.51 183.88 62.85 184.12 63.41C184.97 65.45 184.51 67.46 184.06 69.41C183.79 70.6 183.5 71.83 183.52 73.06C183.52 73.59 183.18 74.11 182.67 74.32C182.34 74.45 182.08 74.71 181.93 75.02C180.17 78.74 174.36 79.14 171.94 79.14V79.2Z" fill="#93B3AF"/>
<path d="M162.46 63.36C161.49 63.36 160.82 62.66 160.82 61.66C160.82 61.21 160.97 60.8 161.23 60.49C161.53 60.14 161.95 59.96 162.46 59.96C163.43 59.96 164.1 60.66 164.1 61.66C164.1 62.11 163.95 62.52 163.69 62.83C163.39 63.18 162.97 63.36 162.46 63.36Z" fill="#93B3AF"/>
<path d="M171.8 66.2799C170.83 66.2799 170.16 65.5799 170.16 64.5799C170.16 64.1299 170.31 63.7199 170.57 63.4099C170.87 63.0599 171.29 62.8799 171.8 62.8799C172.31 62.8799 172.73 63.0599 173.03 63.4099C173.3 63.7199 173.44 64.1299 173.44 64.5799C173.44 65.5799 172.76 66.2799 171.8 66.2799Z" fill="#93B3AF"/>
<path d="M166.76 67.3997C166.64 67.3997 166.52 67.3797 166.41 67.3497C166.15 67.2697 165.92 67.1497 165.71 67.0097C165.6 66.9397 165.46 66.8597 165.34 66.8197C164.8 66.6297 164.45 66.1397 164.42 65.5397C164.41 65.2097 164.54 64.8697 164.79 64.6097C165.05 64.3397 165.4 64.1797 165.74 64.1797C166.15 64.1897 166.53 64.2997 166.86 64.5197L167.06 64.6597C167.12 64.7097 167.24 64.7797 167.31 64.8097C167.92 65.0997 168.22 65.7297 168.06 66.4097C167.93 66.9597 167.34 67.4097 166.74 67.4097L166.76 67.3997Z" fill="#93B3AF"/>
<path d="M162.52 70.84C162.08 70.84 161.7 70.67 161.42 70.52C161.07 70.34 160.69 70.1 160.49 69.67C160.32 69.32 160.35 69.01 160.39 68.69C160.41 68.53 160.42 68.4 160.42 68.26C160.42 67.67 160.83 67.27 161.44 67.27C161.73 67.27 161.98 67.36 162.16 67.53C162.43 67.77 162.77 67.91 163.12 67.91C163.26 67.91 163.39 67.89 163.53 67.85C164.01 67.71 164.38 67.32 164.5 66.83C164.62 66.36 165.04 66.04 165.56 66.04C165.85 66.04 166.12 66.15 166.29 66.33C166.5 66.55 166.52 66.83 166.51 67.02C166.5 67.21 166.5 67.37 166.51 67.53C166.51 67.91 166.52 68.21 166.34 68.63C166.27 68.79 166.22 68.95 166.18 69.12C166.11 69.38 166.04 69.6 165.95 69.8C165.72 70.28 165.3 70.55 164.81 70.56C164.73 70.56 164.63 70.55 164.52 70.52C164.42 70.5 164.32 70.49 164.22 70.49C164.06 70.49 163.9 70.52 163.74 70.57C163.51 70.65 163.26 70.71 163.02 70.76C162.76 70.82 162.63 70.82 162.53 70.82L162.52 70.84Z" fill="#93B3AF"/>
<path d="M167.31 72.2897C167 72.2897 166.74 72.2297 166.51 72.0897C166.07 71.8397 165.64 71.2697 165.33 70.8497L165.23 70.7097C165.01 70.4297 164.9 70.1697 164.86 69.8397C164.84 69.6897 164.84 69.5697 164.85 69.4397C164.85 69.3997 164.85 69.3597 164.85 69.3197C164.85 69.2297 164.85 69.0497 164.83 68.9597C164.78 68.6997 164.83 68.4597 164.98 68.2197C165.19 67.8897 165.56 67.6797 165.92 67.6797C166.35 67.6797 166.58 67.9697 166.69 68.1997C166.74 68.3097 166.78 68.4097 166.8 68.4997C166.91 68.9297 167.21 69.2897 167.63 69.4597C167.81 69.5297 167.99 69.5697 168.18 69.5697C168.43 69.5697 168.68 69.4997 168.9 69.3697C169.1 69.2597 169.26 69.2197 169.43 69.2197C169.89 69.2197 170.33 69.5897 170.45 70.0697C170.56 70.4997 170.37 70.8897 169.97 71.1097C169.85 71.1697 169.75 71.2497 169.65 71.3397L169.55 71.4397C169.45 71.5397 169.35 71.6297 169.23 71.7097C168.97 71.8797 168.69 71.9697 168.41 72.0497C168.08 72.1497 167.69 72.2397 167.32 72.2397L167.31 72.2897Z" fill="#93B3AF"/>
<path d="M308.52 119.9C307.55 119.9 306.88 119.2 306.88 118.2C306.88 117.75 307.03 117.34 307.29 117.03C307.59 116.68 308.01 116.5 308.52 116.5C309.03 116.5 309.45 116.68 309.75 117.03C310.01 117.34 310.16 117.75 310.16 118.2C310.16 119.2 309.48 119.9 308.52 119.9Z" fill="#93B3AF"/>
<path d="M317.55 115.97C316.58 115.97 315.91 115.27 315.91 114.27C315.91 113.82 316.06 113.41 316.32 113.1C316.62 112.75 317.04 112.57 317.55 112.57C318.06 112.57 318.48 112.75 318.78 113.1C319.04 113.41 319.19 113.82 319.19 114.27C319.19 115.27 318.51 115.97 317.55 115.97Z" fill="#93B3AF"/>
<path d="M313.05 125.6C312.78 125.6 312.54 125.54 312.33 125.43C312.06 125.28 311.91 125.07 311.76 124.85C311.68 124.73 311.61 124.63 311.52 124.52C311.24 124.2 311.18 123.78 311.36 123.4C311.54 123.01 311.92 122.74 312.29 122.74C312.79 122.74 313.27 122.47 313.52 122.04C313.77 121.61 313.79 121.07 313.55 120.63C313.4 120.36 313.39 120.07 313.52 119.82C313.7 119.48 314.1 119.24 314.52 119.24C314.85 119.24 315.13 119.38 315.33 119.64C315.4 119.73 315.48 119.81 315.58 119.89C315.74 120.01 315.82 120.09 315.88 120.17C316 120.35 316.08 120.58 316.15 120.78C316.21 120.97 316.29 121.13 316.37 121.29C316.5 121.58 316.61 121.8 316.67 122.04C316.79 122.5 316.67 122.98 316.35 123.3C316.27 123.38 316.16 123.46 316.03 123.53C315.79 123.66 315.59 123.86 315.46 124.11C315.33 124.35 315.13 124.63 314.9 124.89C314.63 125.19 314.28 125.38 313.79 125.5C313.57 125.55 313.31 125.6 313.05 125.6Z" fill="#93B3AF"/>
<path d="M318.33 123.39C318.14 123.39 317.95 123.36 317.77 123.32L317.67 123.3C317.52 123.27 317.38 123.26 317.23 123.25C317 123.23 316.76 123.2 316.54 123.13C316.26 123.05 316.01 122.89 315.79 122.65C315.75 122.61 315.72 122.56 315.68 122.51C315.57 122.35 315.42 122.22 315.25 122.12C314.92 121.92 314.78 121.6 314.86 121.24C314.97 120.74 315.46 120.33 315.96 120.33C316.11 120.33 316.26 120.36 316.41 120.43C316.46 120.45 316.5 120.47 316.54 120.5C316.78 120.66 317.06 120.74 317.34 120.74C317.49 120.74 317.63 120.72 317.78 120.67C318.2 120.54 318.53 120.22 318.68 119.81C318.85 119.38 319.22 119.12 319.7 119.12C320.08 119.12 320.41 119.28 320.59 119.55C320.74 119.77 320.76 120.06 320.65 120.35C320.56 120.57 320.51 120.79 320.47 121C320.39 121.4 320.32 121.75 320.1 122.09C319.82 122.53 319.39 123.18 318.71 123.36C318.6 123.39 318.49 123.4 318.37 123.4L318.33 123.39Z" fill="#93B3AF"/>
<path d="M309.25 131.76C308.82 131.76 308.36 131.73 307.91 131.55C307.42 131.36 306.77 130.88 306.14 130.26C305.91 130.03 305.61 129.89 305.29 129.85C304.69 129.78 304.22 129.52 303.49 128.86C303.21 128.61 302.97 128.23 302.74 127.87C302.34 127.26 302.12 126.95 301.81 126.73C301.74 126.68 301.66 126.63 301.58 126.6C301.27 126.46 300.94 126 300.94 125.5C300.94 125.03 300.7 124.59 300.31 124.33C299.95 124.09 299.58 123.65 299.61 123.15C299.63 122.84 299.55 122.53 299.37 122.27C299.21 122.03 299.13 121.76 299.13 121.5C299.13 121.2 299.05 120.9 298.87 120.65C298.6 120.26 298.56 119.67 298.78 119.24C298.98 118.86 298.99 118.4 298.82 118C298.73 117.79 298.69 117.57 298.7 117.36C298.71 117.18 298.7 117 298.64 116.83C298.52 116.46 298.57 116.09 298.76 115.76C298.9 115.53 299.09 115.33 299.33 115.19C299.74 114.96 300.01 114.54 300.04 114.07C300.07 113.65 300.35 113.27 300.81 113.03C301.23 112.81 301.51 112.38 301.55 111.91C301.58 111.62 301.63 111.31 301.87 111.04C302.33 110.5 302.96 110.09 303.58 109.71C304.02 109.43 304.47 109.15 304.84 108.82C305.15 108.55 305.44 108.22 305.75 107.87C306.32 107.23 306.89 106.59 307.55 106.28C308 106.06 308.41 106.04 308.82 106.03C309.43 106 310.01 105.98 310.62 105.27C310.89 104.95 311.26 104.89 311.53 104.89C311.62 104.89 311.72 104.89 311.81 104.91C311.89 104.92 311.97 104.93 312.05 104.93C312.28 104.93 312.5 104.88 312.71 104.77C312.9 104.67 313.11 104.62 313.33 104.62C313.49 104.62 313.64 104.65 313.8 104.7C313.94 104.74 314.08 104.77 314.23 104.77C314.23 104.77 314.39 104.77 314.41 104.77C314.55 104.77 314.68 104.75 314.81 104.71C314.99 104.66 315.15 104.61 315.28 104.61C315.77 104.63 316.61 104.76 317.05 104.87C317.68 105.02 318.39 105.4 319.08 105.76C320.07 106.28 321.08 106.82 322 106.82C322.12 106.82 322.24 106.82 322.35 106.79C322.48 106.77 322.59 106.76 322.7 106.76C323.21 106.76 323.61 106.98 323.9 107.42C324.03 107.61 324.2 107.77 324.4 107.88C324.43 107.9 324.66 108 324.81 108.07C325.14 108.22 325.45 108.36 325.69 108.65C325.93 108.94 326.02 109.27 326.11 109.58C326.2 109.88 326.27 110.12 326.42 110.34C326.51 110.48 326.65 110.72 326.8 110.99C327.07 111.47 327.38 112.01 327.67 112.45C328.24 113.29 329.96 115.84 329.17 118.11C329.08 118.36 329.07 118.62 329.12 118.88C329.29 119.7 329.14 120.34 328.64 120.91C328.41 121.18 328.28 121.52 328.29 121.87C328.29 122.09 328.29 122.33 328.25 122.61C328.21 122.96 328.08 123.57 327.58 123.78C326.49 124.24 326.11 125.04 325.74 125.82C325.4 126.53 325.05 127.27 324.16 127.78C323.72 128.03 322.91 128.14 322.48 128.15C322.2 128.15 321.92 128.24 321.69 128.4C321.4 128.6 321.06 128.84 320.9 128.96C320.8 129.03 320.61 129.19 320.54 129.28C320.25 129.63 319.85 129.83 319.46 129.83C319.34 129.83 319.22 129.81 319.1 129.78C318.94 129.73 318.76 129.71 318.55 129.71C317.82 129.71 316.94 129.98 315.8 130.37C315.2 130.57 314.58 130.78 314.07 130.88C313.94 130.91 313.82 130.95 313.71 131.01C313.56 131.09 313.37 131.14 313.23 131.18C312.99 131.25 312.77 131.32 312.56 131.39C312.1 131.54 311.73 131.67 311.28 131.75C311.25 131.75 311.19 131.73 311.14 131.71C311.01 131.67 310.88 131.65 310.74 131.65C310.58 131.65 310.42 131.68 310.26 131.73C310.19 131.76 310.15 131.76 310.15 131.76H309.89H309.25ZM306.35 127.12C306.87 127.12 307.28 127.34 307.56 127.77C307.61 127.85 307.67 127.92 307.73 127.98C308.19 128.46 309.05 128.68 309.08 128.69C309.2 128.72 309.31 128.73 309.43 128.73C309.64 128.73 309.86 128.68 310.05 128.59C310.2 128.52 310.37 128.48 310.56 128.48C310.73 128.48 310.91 128.51 311.07 128.57C311.22 128.63 311.39 128.65 311.55 128.65C311.62 128.65 311.69 128.65 311.76 128.64C312.45 128.54 314.37 128.17 314.94 128.02C315.63 127.84 316.13 127.61 316.57 127.41C317.19 127.13 317.68 126.91 318.39 126.91C318.47 126.91 318.68 126.92 318.71 126.92C318.99 126.92 319.27 126.84 319.5 126.68L319.74 126.52C319.93 126.4 320.03 126.33 320.12 126.26C320.24 126.17 320.34 126.06 320.43 125.94C320.69 125.57 321.1 125.32 321.47 125.32C321.66 125.32 321.92 125.28 322.09 125.21C323.16 124.76 324.92 122.85 325.29 121.75C325.37 121.5 325.38 121.23 325.32 120.97C325.21 120.54 325.39 120 325.74 119.68C326.07 119.38 326.23 118.95 326.19 118.51C326.16 118.19 326.24 117.88 326.44 117.59C326.64 117.29 326.71 116.93 326.66 116.58C326.5 115.6 325.63 113.78 325.1 112.96C324.67 112.29 324.1 111.42 323.86 111.13C323.58 110.83 323.32 110.6 323.06 110.37C322.85 110.19 322.67 110.03 322.49 109.87C322.26 109.65 321.96 109.52 321.65 109.49C320.4 109.38 319.27 108.89 318.07 108.38C317.51 108.14 317.02 107.93 316.5 107.75C316.41 107.72 316.31 107.69 316.21 107.68L315.87 107.64C315.81 107.64 315.75 107.63 315.68 107.63C315.55 107.63 315.43 107.65 315.3 107.68C315.22 107.68 315.11 107.65 315.03 107.63C314.99 107.63 314.95 107.61 314.91 107.61C314.68 107.58 314.5 107.56 314.33 107.55C314.3 107.55 314.27 107.55 314.25 107.55C313.95 107.55 313.65 107.65 313.41 107.83C313.18 108 312.9 108.09 312.61 108.09C312.52 108.09 312.43 108.09 312.34 108.07C312.26 108.05 312.17 108.05 312.09 108.05C311.85 108.05 311.61 108.11 311.4 108.23C311.06 108.42 310.71 108.55 310.35 108.68C310.04 108.79 309.71 108.91 309.34 109.08C309.29 109.1 309.18 109.12 309.02 109.12C308.64 109.12 308.23 109.28 307.96 109.55C307.82 109.7 307.43 110.11 307.43 110.11C307.09 110.47 306.74 110.85 306.53 111.03C306.32 111.21 306.05 111.38 305.76 111.57C305.47 111.76 305.1 112 304.89 112.17C304.62 112.39 304.45 112.71 304.4 113.06C304.37 113.25 304.33 113.39 304.22 113.54C304.05 113.76 303.92 113.94 303.8 114.1C303.54 114.45 303.37 114.69 303.15 114.89C302.92 115.09 302.77 115.36 302.7 115.66C302.59 116.19 302.39 116.68 302.08 117.18C301.92 117.44 301.85 117.75 301.88 118.05C301.91 118.36 301.9 118.65 301.85 118.95C301.8 119.28 301.85 119.62 302.03 119.91C302.14 120.1 302.21 120.32 302.23 120.54C302.25 120.82 302.35 121.09 302.53 121.31C302.72 121.55 302.84 121.84 302.85 122.1C302.86 122.41 302.98 122.72 303.19 122.95C303.24 123.01 303.29 123.07 303.34 123.14C303.42 123.26 303.67 123.9 303.7 124.5C303.72 124.79 303.82 125.06 304 125.29C304.38 125.78 304.96 126.44 305.39 126.81C305.65 127.03 305.97 127.15 306.31 127.15H306.38L306.35 127.12Z" fill="#93B3AF"/>
<path d="M300.63 117.69C299.96 117.69 299.34 117.38 298.67 117.04C298.29 116.85 297.98 116.7 297.66 116.58C297.52 116.53 297.38 116.49 297.24 116.46C296.69 116.32 296.33 116.19 296.06 115.72C295.91 115.46 295.87 115.18 295.92 114.85C295.97 114.49 295.89 114.13 295.68 113.84C295.37 113.39 295.25 112.94 295.69 112.25C295.7 112.24 295.75 112.18 295.81 112.13C296.01 111.91 296.14 111.64 296.18 111.35C296.19 111.24 296.21 111.13 296.23 111.06C296.28 110.9 296.37 110.74 296.48 110.58C296.66 110.33 296.76 110.04 296.76 109.73C296.76 109.27 296.87 108.98 297.14 108.71C297.34 108.51 297.63 108.36 297.97 108.29C298.3 108.27 298.69 108.13 298.93 107.91C299.19 107.66 299.6 107.37 300.41 107.28C300.56 107.26 300.7 107.25 300.83 107.25C301.41 107.25 301.86 107.4 302.35 107.75C302.54 107.89 302.76 107.97 302.99 108C303.77 108.1 304.29 108.34 304.68 108.77C305.1 109.24 305.1 109.79 305.04 110.52C305.04 110.65 305.02 110.78 305.02 110.9C305.01 111.2 305.09 111.51 305.26 111.76C305.4 111.97 305.49 112.2 305.51 112.43C305.57 113 305.35 113.33 305 113.76C304.88 113.91 304.78 114.03 304.68 114.18C304.52 114.41 304.41 114.68 304.3 114.94C304.14 115.31 303.97 115.69 303.69 115.98C303.14 116.54 302.08 117.19 301.6 117.45C301.29 117.62 300.98 117.7 300.64 117.7L300.63 117.69Z" fill="#93B3AF"/>
<path d="M319.64 110.22C319.05 110.22 318.24 110.01 317.75 109.58C317.7 109.53 317.64 109.46 317.58 109.36C317.41 109.06 317.13 108.83 316.8 108.72C316.37 108.55 315.97 108.09 315.76 107.49C315.74 107.42 315.71 107.36 315.67 107.29C315.47 106.91 315.41 106.54 315.48 106.07C315.52 105.81 315.48 105.55 315.38 105.31C315.15 104.77 315.06 104.32 315.09 103.9C315.15 103.1 315.63 102.77 316.41 102.32L316.65 102.18C316.99 101.98 317.29 101.73 317.59 101.49C317.97 101.18 318.35 100.87 318.78 100.66C319.03 100.54 319.24 100.49 319.44 100.49C319.6 100.49 319.76 100.53 319.92 100.6C320.11 100.69 320.31 100.73 320.51 100.73C320.67 100.73 320.82 100.7 320.97 100.65C321.11 100.6 321.23 100.58 321.35 100.58C321.86 100.6 322.13 100.81 322.44 101.07C322.6 101.2 322.73 101.3 322.86 101.38C322.96 101.44 323.07 101.49 323.19 101.53C323.44 101.63 323.88 101.81 324.1 102.1C324.22 102.26 324.3 102.41 324.34 102.58C324.42 102.92 324.62 103.21 324.9 103.41C325.09 103.54 325.23 103.72 325.33 103.96C325.44 104.21 325.47 104.44 325.43 104.68C325.37 105.01 325.43 105.36 325.61 105.65C325.65 105.72 325.69 105.8 325.72 105.88C325.99 106.71 325.62 107.68 325.5 107.96C325.05 109 324.46 109.47 323.41 109.63C323.27 109.65 323.13 109.69 323.01 109.75C322.1 110.19 321.12 110.23 320.19 110.23H319.64V110.22Z" fill="#93B3AF"/>
<path d="M313.62 120.76C313.25 120.75 312.91 120.68 312.6 120.57C312.56 120.56 312.52 120.54 312.48 120.53C312.3 120.48 312.12 120.38 311.97 120.23C311.74 120.01 311.63 119.67 311.67 119.35C311.71 119.02 311.88 118.76 312.16 118.6C312.33 118.51 312.52 118.46 312.71 118.46C312.79 118.46 312.88 118.46 312.96 118.49C313.07 118.51 313.17 118.53 313.28 118.53C313.67 118.53 314.04 118.37 314.32 118.08C314.35 118.05 314.38 118.02 314.41 118C314.5 117.92 314.59 117.83 314.66 117.73C314.78 117.56 314.99 117.36 315.35 117.36C315.71 117.36 316.09 117.57 316.29 117.91C316.48 118.22 316.5 118.57 316.33 118.91C316.28 119.01 316.22 119.1 316.15 119.19C316.05 119.31 315.98 119.44 315.92 119.59C315.82 119.86 315.65 120.07 315.42 120.22C315.32 120.28 315.21 120.33 315.08 120.37C314.93 120.41 314.79 120.48 314.66 120.56C314.46 120.69 314.08 120.77 313.63 120.77L313.62 120.76Z" fill="#93B3AF"/>
<path d="M90.48 70.3499L92.57 63.4199L95.02 70.2299L101.95 72.3199L95.14 74.7699L93.05 81.7099L90.6 74.8899L83.66 72.7999L90.48 70.3499Z" fill="#93B3AF"/>
<path d="M237.48 92.3499L239.57 85.4199L242.02 92.2299L248.95 94.3199L242.14 96.7699L240.05 103.71L237.6 96.8899L230.66 94.7999L237.48 92.3499Z" fill="#93B3AF"/>
<path d="M325.48 63.3499L327.57 56.4199L330.02 63.2299L336.95 65.3199L330.14 67.7699L328.05 74.7099L325.6 67.8899L318.66 65.7999L325.48 63.3499Z" fill="#93B3AF"/>
</svg>
