<svg width="24" height="24" viewBox="0 0 24 24" fill="none" xmlns="http://www.w3.org/2000/svg">
<path fill-rule="evenodd" clip-rule="evenodd" d="M20 11C20 8.191 20 6.787 19.326 5.778C19.034 5.34109 18.6589 4.96595 18.222 4.674C17.213 4 15.81 4 13 4H11C8.191 4 6.787 4 5.778 4.674C5.34106 4.96591 4.96591 5.34106 4.674 5.778C4 6.787 4 8.19 4 11C4 13.809 4 15.213 4.674 16.222C4.96591 16.6589 5.34106 17.0341 5.778 17.326C6.659 17.915 7.842 17.989 10 17.999L11.106 20.211C11.1891 20.3769 11.3168 20.5164 11.4747 20.6138C11.6326 20.7113 11.8145 20.7629 12 20.7629C12.1855 20.7629 12.3674 20.7113 12.5253 20.6138C12.6832 20.5164 12.8109 20.3769 12.894 20.211L14 18C16.158 17.99 17.34 17.915 18.222 17.326C18.6589 17.034 19.034 16.6589 19.326 16.222C20 15.213 20 13.81 20 11ZM9 8C8.73478 8 8.48043 8.10536 8.29289 8.29289C8.10536 8.48043 8 8.73478 8 9C8 9.26522 8.10536 9.51957 8.29289 9.70711C8.48043 9.89464 8.73478 10 9 10H15C15.2652 10 15.5196 9.89464 15.7071 9.70711C15.8946 9.51957 16 9.26522 16 9C16 8.73478 15.8946 8.48043 15.7071 8.29289C15.5196 8.10536 15.2652 8 15 8H9ZM9 12C8.73478 12 8.48043 12.1054 8.29289 12.2929C8.10536 12.4804 8 12.7348 8 13C8 13.2652 8.10536 13.5196 8.29289 13.7071C8.48043 13.8946 8.73478 14 9 14H12C12.2652 14 12.5196 13.8946 12.7071 13.7071C12.8946 13.5196 13 13.2652 13 13C13 12.7348 12.8946 12.4804 12.7071 12.2929C12.5196 12.1054 12.2652 12 12 12H9Z" fill="#837266"/>
</svg>
