<svg width="36" height="36" viewBox="0 0 36 36" fill="none" xmlns="http://www.w3.org/2000/svg">
<path d="M14.25 33C12.775 33 11.531 32.494 10.518 31.482C9.505 30.47 8.999 29.226 9 27.75C9 27.525 9.0315 27.35 9.0945 27.225C9.1575 27.1 9.151 27 9.075 26.925C8.999 26.85 8.899 26.844 8.775 26.907C8.651 26.97 8.476 27.001 8.25 27C6.775 27 5.531 26.494 4.518 25.482C3.505 24.47 2.999 23.226 3 21.75C3.001 20.274 3.5075 19.03 4.5195 18.018C5.5315 17.006 6.775 16.5 8.25 16.5C8.825 16.5 9.35 16.575 9.825 16.725C10.3 16.875 10.75 17.1 11.175 17.4L17.4 11.175C17.1 10.75 16.875 10.3 16.725 9.825C16.575 9.35 16.5 8.825 16.5 8.25C16.5 6.775 17.0065 5.531 18.0195 4.518C19.0325 3.505 20.276 2.999 21.75 3C23.224 3.001 24.468 3.5075 25.482 4.5195C26.496 5.5315 27.002 6.775 27 8.25C27 8.475 26.969 8.65 26.907 8.775C26.845 8.9 26.851 9 26.925 9.075C26.999 9.15 27.099 9.1565 27.225 9.0945C27.351 9.0325 27.526 9.001 27.75 9C29.225 9 30.469 9.5065 31.482 10.5195C32.495 11.5325 33.001 12.776 33 14.25C32.999 15.724 32.493 16.968 31.482 17.982C30.471 18.996 29.227 19.502 27.75 19.5C27.175 19.5 26.65 19.425 26.175 19.275C25.7 19.125 25.25 18.9 24.825 18.6L18.6 24.825C18.9 25.25 19.125 25.7 19.275 26.175C19.425 26.65 19.5 27.175 19.5 27.75C19.5 29.225 18.994 30.469 17.982 31.482C16.97 32.495 15.726 33.001 14.25 33Z" fill="#837266"/>
</svg>
