<svg width="28" height="28" viewBox="0 0 28 28" fill="none" xmlns="http://www.w3.org/2000/svg">
<g clip-path="url(#clip0_1618_5376)">
<path d="M3.28221 18.0447L1.80444 24.4225C1.75346 24.6557 1.75521 24.8973 1.80955 25.1296C1.8639 25.362 1.96947 25.5793 2.11855 25.7657C2.26764 25.952 2.45647 26.1027 2.67125 26.2068C2.88604 26.3108 3.12135 26.3655 3.35999 26.367C3.47119 26.3782 3.58324 26.3782 3.69444 26.367L10.1111 24.8892L22.4311 12.6159L15.5555 5.75586L3.28221 18.0447Z" fill="#F7EFD8"/>
<path d="M26.3044 6.47065L21.7155 1.88176C21.4138 1.58159 21.0056 1.41309 20.58 1.41309C20.1544 1.41309 19.7461 1.58159 19.4444 1.88176L16.8933 4.43288L23.7611 11.3007L26.3122 8.74954C26.4615 8.59949 26.5797 8.42148 26.6602 8.22568C26.7406 8.02989 26.7816 7.82015 26.7809 7.60849C26.7802 7.39682 26.7377 7.18737 26.6559 6.99213C26.5742 6.79689 26.4547 6.61968 26.3044 6.47065Z" fill="#F7EFD8"/>
</g>
<defs>
<clipPath id="clip0_1618_5376">
<rect width="28" height="28" fill="white"/>
</clipPath>
</defs>
</svg>
