<svg width="31" height="30" viewBox="0 0 31 30" fill="none" xmlns="http://www.w3.org/2000/svg">
<path d="M20.3333 8.99566C20.3333 11.2687 17.2875 15.3193 15.95 16.9887C15.6292 17.3884 15.0333 17.3884 14.7167 16.9887C13.3792 15.3193 10.3333 11.2687 10.3333 8.99566C10.3333 6.23556 12.5708 4 15.3333 4C18.0958 4 20.3333 6.23556 20.3333 8.99566ZM20.6667 12.3427C20.8125 12.0555 20.9458 11.7682 21.0667 11.4852C21.0875 11.4352 21.1083 11.3811 21.1292 11.3311L25.9625 9.39947C26.6208 9.1372 27.3333 9.62011 27.3333 10.3278V21.6014C27.3333 22.0093 27.0833 22.3757 26.7042 22.5297L20.6667 24.9401V12.3427ZM9.06666 9.75749C9.16666 10.3445 9.36666 10.9356 9.59999 11.4852C9.72083 11.7682 9.85416 12.0555 10 12.3427V22.8086L4.70416 24.9276C4.04583 25.1899 3.33333 24.707 3.33333 23.9993V12.7257C3.33333 12.3178 3.58333 11.9514 3.96249 11.7974L9.07083 9.75749H9.06666ZM16.9917 17.8213C17.5708 17.0969 18.4792 15.9188 19.3333 14.6158V24.9942L11.3333 22.7087V14.6158C12.1875 15.9188 13.0958 17.0969 13.675 17.8213C14.5292 18.8871 16.1375 18.8871 16.9917 17.8213ZM15.3333 10.3278C15.7754 10.3278 16.1993 10.1524 16.5118 9.8401C16.8244 9.52781 17 9.10426 17 8.66261C17 8.22097 16.8244 7.79741 16.5118 7.48512C16.1993 7.17284 15.7754 6.99739 15.3333 6.99739C14.8913 6.99739 14.4674 7.17284 14.1548 7.48512C13.8423 7.79741 13.6667 8.22097 13.6667 8.66261C13.6667 9.10426 13.8423 9.52781 14.1548 9.8401C14.4674 10.1524 14.8913 10.3278 15.3333 10.3278Z" fill="#8A7D73"/>
</svg>
