<svg width="24" height="25" viewBox="0 0 24 25" fill="none" xmlns="http://www.w3.org/2000/svg">
<path d="M13.5 1.3125C13.0673 0.987945 12.5409 0.8125 12 0.8125C11.4591 0.8125 10.9327 0.987945 10.5 1.3125L1.75 7.875C1.43951 8.10787 1.1875 8.40983 1.01393 8.75697C0.840363 9.1041 0.75 9.48689 0.75 9.875V21.75C0.75 22.413 1.01339 23.0489 1.48223 23.5178C1.95107 23.9866 2.58696 24.25 3.25 24.25H8.125C8.48967 24.25 8.83941 24.1051 9.09727 23.8473C9.35513 23.5894 9.5 23.2397 9.5 22.875V16.75C9.5 16.087 9.76339 15.4511 10.2322 14.9822C10.7011 14.5134 11.337 14.25 12 14.25C12.663 14.25 13.2989 14.5134 13.7678 14.9822C14.2366 15.4511 14.5 16.087 14.5 16.75V22.875C14.5 23.2397 14.6449 23.5894 14.9027 23.8473C15.1606 24.1051 15.5103 24.25 15.875 24.25H20.75C21.413 24.25 22.0489 23.9866 22.5178 23.5178C22.9866 23.0489 23.25 22.413 23.25 21.75V9.875C23.25 9.48689 23.1596 9.1041 22.9861 8.75697C22.8125 8.40983 22.5605 8.10787 22.25 7.875L13.5 1.3125Z" fill="#8A7D73"/>
</svg>
