<svg width="36" height="36" viewBox="0 0 36 36" fill="none" xmlns="http://www.w3.org/2000/svg">
<path d="M15.2999 5.40002C14.5838 5.40002 13.8971 5.68449 13.3907 6.19084C12.8844 6.69718 12.5999 7.38394 12.5999 8.10002V12.6018H8.0999C7.38382 12.6018 6.69706 12.8863 6.19071 13.3926C5.68437 13.899 5.3999 14.5857 5.3999 15.3018V20.7018C5.3999 21.4179 5.68437 22.1047 6.19071 22.611C6.69706 23.1174 7.38382 23.4018 8.0999 23.4018H12.5999V27.9018C12.5999 28.6179 12.8844 29.3047 13.3907 29.811C13.8971 30.3174 14.5838 30.6018 15.2999 30.6018H20.6999C21.416 30.6018 22.1027 30.3174 22.6091 29.811C23.1154 29.3047 23.3999 28.6179 23.3999 27.9018V23.4018H27.8999C28.616 23.4018 29.3027 23.1174 29.8091 22.611C30.3154 22.1047 30.5999 21.4179 30.5999 20.7018V15.3018C30.5999 14.5857 30.3154 13.899 29.8091 13.3926C29.3027 12.8863 28.616 12.6018 27.8999 12.6018H23.3999V8.10002C23.3999 7.38394 23.1154 6.69718 22.6091 6.19084C22.1027 5.68449 21.416 5.40002 20.6999 5.40002H15.2999Z" fill="#837266"/>
</svg>
