<svg width="36" height="36" viewBox="0 0 36 36" fill="none" xmlns="http://www.w3.org/2000/svg">
<path fill-rule="evenodd" clip-rule="evenodd" d="M19.4999 4.5C19.4999 4.10218 19.3419 3.72064 19.0606 3.43934C18.7793 3.15804 18.3977 3 17.9999 3C17.6021 3 17.2206 3.15804 16.9393 3.43934C16.6579 3.72064 16.4999 4.10218 16.4999 4.5V5.625H15.6644C14.0565 5.62489 12.5089 6.23759 11.3368 7.33836C10.1647 8.43912 9.45615 9.9452 9.35541 11.55L9.02391 16.851C8.8975 18.8722 8.21886 20.8199 7.06191 22.482C6.82286 22.8256 6.6768 23.2252 6.63792 23.642C6.59905 24.0587 6.66869 24.4785 6.84008 24.8603C7.01146 25.2422 7.27876 25.5732 7.61596 25.8212C7.95317 26.0692 8.34881 26.2257 8.76441 26.2755L13.8749 26.8875V28.5C13.8749 29.594 14.3095 30.6432 15.0831 31.4168C15.8567 32.1904 16.9059 32.625 17.9999 32.625C19.0939 32.625 20.1431 32.1904 20.9167 31.4168C21.6903 30.6432 22.1249 29.594 22.1249 28.5V26.8875L27.2354 26.274C27.6508 26.2241 28.0462 26.0676 28.3831 25.8197C28.7201 25.5718 28.9873 25.2409 29.1586 24.8593C29.33 24.4776 29.3997 24.0582 29.361 23.6416C29.3224 23.225 29.1766 22.8256 28.9379 22.482C27.7809 20.8199 27.1022 18.8722 26.9759 16.851L26.6444 11.5515C26.544 9.94644 25.8357 8.43998 24.6635 7.3389C23.4914 6.23782 21.9436 5.62492 20.3354 5.625H19.4999V4.5ZM16.1249 28.5C16.1249 28.9973 16.3225 29.4742 16.6741 29.8258C17.0257 30.1775 17.5026 30.375 17.9999 30.375C18.4972 30.375 18.9741 30.1775 19.3257 29.8258C19.6774 29.4742 19.8749 28.9973 19.8749 28.5V27.375H16.1249V28.5Z" fill="#837266"/>
</svg>
