<svg width="31" height="30" viewBox="0 0 31 30" fill="none" xmlns="http://www.w3.org/2000/svg">
<path fill-rule="evenodd" clip-rule="evenodd" d="M11.134 4.5C11.5189 3.83333 12.4812 3.83333 12.8661 4.5L14.3095 7.00006C14.4532 7 14.6 7 14.75 7H17.25C17.4001 7 17.5469 7 17.6906 7.00006L19.134 4.5C19.5189 3.83333 20.4812 3.83333 20.8661 4.5L22.4586 7.25832C22.9671 7.37079 23.395 7.53223 23.7775 7.76395C24.3237 8.09486 24.7926 8.52006 25.1575 9.01528C26 10.1589 26 11.7503 26 14.9342C26 18.1192 26 19.7094 25.1575 20.8531C24.7926 21.3483 24.3236 21.7735 23.7775 22.1044C22.675 22.772 21.1975 22.857 18.5 22.8683L17.1175 25.3744C17.0136 25.5624 16.854 25.7205 16.6567 25.831C16.4593 25.9415 16.232 26 16 26C15.7681 26 15.5407 25.9415 15.3434 25.831C15.146 25.7205 14.9865 25.5624 14.8825 25.3744L13.5 22.8672C10.8025 22.8559 9.32378 22.772 8.22253 22.1044C7.67635 21.7735 7.20742 21.3483 6.84253 20.8531C6.00003 19.7094 6.00003 18.118 6.00003 14.9342C6.00003 11.7492 6.00003 10.1589 6.84253 9.01528C7.20742 8.52002 7.67635 8.09481 8.22253 7.76395C8.60502 7.53227 9.03293 7.37085 9.54145 7.25838L11.134 4.5ZM11.3661 11.8658C11.6006 11.6532 11.9185 11.5338 12.25 11.5338H19.75C20.0816 11.5338 20.3995 11.6532 20.6339 11.8658C20.8683 12.0784 21 12.3667 21 12.6673C21 12.9679 20.8683 13.2562 20.6339 13.4687C20.3995 13.6813 20.0816 13.8007 19.75 13.8007H12.25C11.9185 13.8007 11.6006 13.6813 11.3661 13.4687C11.1317 13.2562 11 12.9679 11 12.6673C11 12.3667 11.1317 12.0784 11.3661 11.8658ZM11.3661 16.3996C11.6006 16.187 11.9185 16.0676 12.25 16.0676H16C16.3316 16.0676 16.6495 16.187 16.8839 16.3996C17.1183 16.6122 17.25 16.9005 17.25 17.2011C17.25 17.5017 17.1183 17.79 16.8839 18.0026C16.6495 18.2151 16.3316 18.3345 16 18.3345H12.25C11.9185 18.3345 11.6006 18.2151 11.3661 18.0026C11.1317 17.79 11 17.5017 11 17.2011C11 16.9005 11.1317 16.6122 11.3661 16.3996Z" fill="#593922"/>
</svg>
