<svg width="20" height="20" viewBox="0 0 20 20" fill="none" xmlns="http://www.w3.org/2000/svg">
<path d="M8.58917 6.01683C9.12417 4.6835 9.39167 4.016 9.82667 3.9235C9.94094 3.8992 10.0591 3.8992 10.1733 3.9235C10.6075 4.01517 10.8758 4.68267 11.4108 6.01683C11.715 6.77517 11.8667 7.15433 12.1517 7.41267C12.2317 7.48517 12.3183 7.54933 12.41 7.60433C12.7392 7.8035 13.15 7.84017 13.9717 7.9135C15.3625 8.0385 16.0575 8.10017 16.27 8.49683C16.314 8.57905 16.3438 8.66806 16.3583 8.76017C16.4292 9.20433 15.9175 9.6685 14.895 10.5993L14.6117 10.8577C14.1333 11.2927 13.895 11.5102 13.7567 11.781C13.6733 11.9437 13.6175 12.1192 13.5917 12.3002C13.5483 12.601 13.6183 12.9168 13.7583 13.5477L13.8083 13.7727C14.0592 14.9043 14.185 15.4702 14.0283 15.7477C13.9591 15.8706 13.8597 15.9739 13.7396 16.048C13.6195 16.122 13.4826 16.1643 13.3417 16.171C13.0233 16.1868 12.5742 15.821 11.675 15.0885C11.0833 14.606 10.7875 14.3652 10.4592 14.271C10.1591 14.185 9.8409 14.185 9.54083 14.271C9.2125 14.3652 8.91583 14.606 8.32417 15.0885C7.42583 15.8202 6.97667 16.1868 6.6575 16.1718C6.51663 16.1649 6.37981 16.1224 6.25986 16.0482C6.13991 15.974 6.04075 15.8706 5.97167 15.7477C5.815 15.4702 5.94083 14.9043 6.19167 13.7727L6.24167 13.5477C6.38167 12.9168 6.45167 12.601 6.40833 12.3002C6.38218 12.1192 6.32643 11.9438 6.24333 11.781C6.105 11.5102 5.86667 11.2927 5.38833 10.8577L5.105 10.5993C4.0825 9.66933 3.57167 9.20433 3.64167 8.76017C3.65617 8.66806 3.68603 8.57905 3.73 8.49683C3.9425 8.10017 4.63833 8.0385 6.02833 7.9135C6.85 7.84017 7.26083 7.8035 7.58917 7.60517C7.68129 7.54949 7.76781 7.48502 7.8475 7.41267C8.13333 7.15433 8.285 6.77517 8.58917 6.01683Z" fill="#A4C8C4" stroke="#A4C8C4" stroke-width="2"/>
</svg>
