<svg width="36" height="36" viewBox="0 0 36 36" fill="none" xmlns="http://www.w3.org/2000/svg">
<path d="M18 8.415L13.86 12.525L18.825 17.49L17.235 19.08L12.27 14.115L9.615 16.77L14.58 21.735L12.99 23.325L8.025 18.36L5.025 21.36C4.54829 21.8218 4.23815 22.4286 4.14315 23.0854C4.04815 23.7423 4.17365 24.4121 4.5 24.99L6 27.825L2.625 31.26L4.74 33.375L8.175 30L11.01 31.5C11.4672 31.7591 11.9845 31.8936 12.51 31.89C12.9059 31.8903 13.2979 31.8123 13.6635 31.6604C14.029 31.5085 14.3609 31.2858 14.64 31.005L27.585 18L18 8.415ZM29.7 13.8L27.015 11.1L29.145 8.985L31.26 11.1L33.375 8.985L27.015 2.625L24.9 4.74L27.015 6.87L24.9 8.985L22.2 6.3L19.59 3.675L17.475 5.805L19.02 7.35V7.365L28.635 16.98H28.65L30.195 18.525L32.325 16.41L29.715 13.8H29.7Z" fill="#837266"/>
</svg>
